<svg width="832" height="273" viewBox="0 0 832 273" fill="none" xmlns="http://www.w3.org/2000/svg">
<mask id="path-1-inside-1_1_11491" fill="white">
<path d="M0 16C0 7.16344 7.16344 0 16 0H816C824.837 0 832 7.16344 832 16V257C832 265.837 824.837 273 816 273H16C7.16346 273 0 265.837 0 257V16Z"/>
</mask>
<path d="M0 16C0 7.16344 7.16344 0 16 0H816C824.837 0 832 7.16344 832 16V257C832 265.837 824.837 273 816 273H16C7.16346 273 0 265.837 0 257V16Z" fill="white" fill-opacity="0.7"/>
<path d="M16 0V1H816V0V-1H16V0ZM832 16H831V257H832H833V16H832ZM816 273V272H16V273V274H816V273ZM0 257H1V16H0H-1V257H0ZM16 273V272C7.71574 272 1 265.284 1 257H0H-1C-1 266.389 6.61117 274 16 274V273ZM832 257H831C831 265.284 824.284 272 816 272V273V274C825.389 274 833 266.389 833 257H832ZM816 0V1C824.284 1 831 7.71573 831 16H832H833C833 6.61116 825.389 -1 816 -1V0ZM16 0V-1C6.61116 -1 -1 6.61116 -1 16H0H1C1 7.71573 7.71573 1 16 1V0Z" fill="black" fill-opacity="0.1" mask="url(#path-1-inside-1_1_11491)"/>
<mask id="path-3-inside-2_1_11491" fill="white">
<path d="M1 1H277.656V142H1V1Z"/>
</mask>
<path d="M277.656 142V143H278.656V142H277.656ZM277.656 1H276.656V142H277.656H278.656V1H277.656ZM277.656 142V141H1V142V143H277.656V142Z" fill="black" fill-opacity="0.07" mask="url(#path-3-inside-2_1_11491)"/>
<path d="M34.74 42V40.62H36.49C36.9167 40.62 37.29 40.5367 37.61 40.37C37.93 40.1967 38.1767 39.9467 38.35 39.62C38.5233 39.2933 38.61 38.9067 38.61 38.46C38.61 38.0133 38.52 37.63 38.34 37.31C38.1667 36.99 37.92 36.7433 37.6 36.57C37.2867 36.3967 36.9167 36.31 36.49 36.31H34.69V34.94H36.51C37.0433 34.94 37.5333 35.0267 37.98 35.2C38.4333 35.3667 38.8267 35.61 39.16 35.93C39.5 36.2433 39.76 36.6167 39.94 37.05C40.1267 37.4767 40.22 37.95 40.22 38.47C40.22 38.9833 40.1267 39.4567 39.94 39.89C39.76 40.3233 39.5033 40.6967 39.17 41.01C38.8367 41.3233 38.4433 41.5667 37.99 41.74C37.5433 41.9133 37.0567 42 36.53 42H34.74ZM33.68 42V34.94H35.25V42H33.68ZM46.3891 42.12C45.8557 42.12 45.3624 42.0267 44.9091 41.84C44.4624 41.6533 44.0691 41.3933 43.7291 41.06C43.3891 40.7267 43.1257 40.34 42.9391 39.9C42.7524 39.4533 42.6591 38.9733 42.6591 38.46C42.6591 37.94 42.7524 37.46 42.9391 37.02C43.1257 36.58 43.3857 36.1967 43.7191 35.87C44.0524 35.5367 44.4424 35.28 44.8891 35.1C45.3424 34.9133 45.8357 34.82 46.3691 34.82C46.8957 34.82 47.3824 34.9133 47.8291 35.1C48.2824 35.28 48.6757 35.5367 49.0091 35.87C49.3491 36.1967 49.6124 36.5833 49.7991 37.03C49.9857 37.47 50.0791 37.95 50.0791 38.47C50.0791 38.9833 49.9857 39.4633 49.7991 39.91C49.6124 40.35 49.3524 40.7367 49.0191 41.07C48.6857 41.3967 48.2924 41.6533 47.8391 41.84C47.3924 42.0267 46.9091 42.12 46.3891 42.12ZM46.3691 40.69C46.7891 40.69 47.1557 40.5967 47.4691 40.41C47.7891 40.2233 48.0357 39.9633 48.2091 39.63C48.3824 39.29 48.4691 38.9 48.4691 38.46C48.4691 38.1267 48.4191 37.8267 48.3191 37.56C48.2191 37.2867 48.0757 37.0533 47.8891 36.86C47.7024 36.66 47.4791 36.51 47.2191 36.41C46.9657 36.3033 46.6824 36.25 46.3691 36.25C45.9491 36.25 45.5791 36.3433 45.2591 36.53C44.9457 36.71 44.7024 36.9667 44.5291 37.3C44.3557 37.6267 44.2691 38.0133 44.2691 38.46C44.2691 38.7933 44.3191 39.0967 44.4191 39.37C44.5191 39.6433 44.6591 39.88 44.8391 40.08C45.0257 40.2733 45.2491 40.4233 45.5091 40.53C45.7691 40.6367 46.0557 40.69 46.3691 40.69ZM54.372 42L52.102 34.94H53.662L55.322 40.37H54.712L56.332 34.94H57.562L59.182 40.37H58.582L60.232 34.94H61.782L59.512 42H58.282L56.652 36.57H57.232L55.602 42H54.372ZM64.4316 42V34.94H65.5316L66.0016 36.35V42H64.4316ZM69.3016 42L65.1416 36.67L65.5316 34.94L69.6916 40.27L69.3016 42ZM69.3016 42L68.8816 40.59V34.94H70.4516V42H69.3016ZM73.6144 42V34.94H75.1844V42H73.6144ZM74.8244 42V40.62H78.3144V42H74.8244ZM83.9992 42.12C83.4659 42.12 82.9726 42.0267 82.5192 41.84C82.0726 41.6533 81.6792 41.3933 81.3392 41.06C80.9992 40.7267 80.7359 40.34 80.5492 39.9C80.3626 39.4533 80.2692 38.9733 80.2692 38.46C80.2692 37.94 80.3626 37.46 80.5492 37.02C80.7359 36.58 80.9959 36.1967 81.3292 35.87C81.6626 35.5367 82.0526 35.28 82.4992 35.1C82.9526 34.9133 83.4459 34.82 83.9792 34.82C84.5059 34.82 84.9926 34.9133 85.4392 35.1C85.8926 35.28 86.2859 35.5367 86.6192 35.87C86.9592 36.1967 87.2226 36.5833 87.4092 37.03C87.5959 37.47 87.6892 37.95 87.6892 38.47C87.6892 38.9833 87.5959 39.4633 87.4092 39.91C87.2226 40.35 86.9626 40.7367 86.6292 41.07C86.2959 41.3967 85.9026 41.6533 85.4492 41.84C85.0026 42.0267 84.5192 42.12 83.9992 42.12ZM83.9792 40.69C84.3992 40.69 84.7659 40.5967 85.0792 40.41C85.3992 40.2233 85.6459 39.9633 85.8192 39.63C85.9926 39.29 86.0792 38.9 86.0792 38.46C86.0792 38.1267 86.0292 37.8267 85.9292 37.56C85.8292 37.2867 85.6859 37.0533 85.4992 36.86C85.3126 36.66 85.0892 36.51 84.8292 36.41C84.5759 36.3033 84.2926 36.25 83.9792 36.25C83.5592 36.25 83.1892 36.3433 82.8692 36.53C82.5559 36.71 82.3126 36.9667 82.1392 37.3C81.9659 37.6267 81.8792 38.0133 81.8792 38.46C81.8792 38.7933 81.9292 39.0967 82.0292 39.37C82.1292 39.6433 82.2692 39.88 82.4492 40.08C82.6359 40.2733 82.8592 40.4233 83.1192 40.53C83.3792 40.6367 83.6659 40.69 83.9792 40.69ZM89.4969 42L92.2969 34.94H93.7169L96.4869 42H94.8269L92.7069 36.14H93.2769L91.1269 42H89.4969ZM91.0869 40.72V39.44H94.9369V40.72H91.0869ZM100.094 42V40.62H101.844C102.271 40.62 102.644 40.5367 102.964 40.37C103.284 40.1967 103.531 39.9467 103.704 39.62C103.877 39.2933 103.964 38.9067 103.964 38.46C103.964 38.0133 103.874 37.63 103.694 37.31C103.521 36.99 103.274 36.7433 102.954 36.57C102.641 36.3967 102.271 36.31 101.844 36.31H100.044V34.94H101.864C102.397 34.94 102.887 35.0267 103.334 35.2C103.787 35.3667 104.181 35.61 104.514 35.93C104.854 36.2433 105.114 36.6167 105.294 37.05C105.481 37.4767 105.574 37.95 105.574 38.47C105.574 38.9833 105.481 39.4567 105.294 39.89C105.114 40.3233 104.857 40.6967 104.524 41.01C104.191 41.3233 103.797 41.5667 103.344 41.74C102.897 41.9133 102.411 42 101.884 42H100.094ZM99.0339 42V34.94H100.604V42H99.0339ZM110.493 42.11C109.913 42.11 109.413 42.0167 108.993 41.83C108.58 41.6367 108.2 41.3467 107.853 40.96L108.873 39.95C109.1 40.21 109.35 40.4133 109.623 40.56C109.903 40.7 110.226 40.77 110.593 40.77C110.926 40.77 111.183 40.71 111.363 40.59C111.55 40.47 111.643 40.3033 111.643 40.09C111.643 39.8967 111.583 39.74 111.463 39.62C111.343 39.5 111.183 39.3967 110.983 39.31C110.79 39.2233 110.573 39.14 110.333 39.06C110.1 38.98 109.866 38.89 109.633 38.79C109.4 38.6833 109.183 38.5533 108.983 38.4C108.79 38.24 108.633 38.0433 108.513 37.81C108.393 37.57 108.333 37.27 108.333 36.91C108.333 36.4767 108.436 36.1033 108.643 35.79C108.856 35.4767 109.15 35.24 109.523 35.08C109.896 34.9133 110.326 34.83 110.813 34.83C111.306 34.83 111.756 34.9167 112.163 35.09C112.576 35.2633 112.916 35.5 113.183 35.8L112.163 36.81C111.95 36.59 111.733 36.4267 111.513 36.32C111.3 36.2133 111.056 36.16 110.783 36.16C110.51 36.16 110.293 36.2133 110.133 36.32C109.973 36.42 109.893 36.5667 109.893 36.76C109.893 36.94 109.953 37.0867 110.073 37.2C110.193 37.3067 110.35 37.4 110.543 37.48C110.743 37.56 110.96 37.64 111.193 37.72C111.433 37.8 111.67 37.8933 111.903 38C112.136 38.1067 112.35 38.2433 112.543 38.41C112.743 38.57 112.903 38.7767 113.023 39.03C113.143 39.2767 113.203 39.5833 113.203 39.95C113.203 40.6233 112.963 41.1533 112.483 41.54C112.003 41.92 111.34 42.11 110.493 42.11ZM119.707 42V34.94H121.277V42H119.707ZM124.437 42V34.94H125.537L126.007 36.35V42H124.437ZM129.307 42L125.147 36.67L125.537 34.94L129.697 40.27L129.307 42ZM129.307 42L128.887 40.59V34.94H130.457V42H129.307ZM137.324 42V34.94H138.894V42H137.324ZM138.524 39.23V37.88H142.054V39.23H138.524ZM138.524 36.29V34.94H142.214V36.29H138.524ZM145.023 42V34.94H146.593V42H145.023ZM150.952 39.09V37.93H152.442C152.756 37.93 152.996 37.85 153.162 37.69C153.336 37.53 153.422 37.3133 153.422 37.04C153.422 36.7867 153.339 36.5767 153.172 36.41C153.006 36.2433 152.766 36.16 152.452 36.16H150.952V34.94H152.632C153.099 34.94 153.509 35.03 153.862 35.21C154.216 35.3833 154.492 35.6267 154.692 35.94C154.892 36.2533 154.992 36.6133 154.992 37.02C154.992 37.4333 154.892 37.7967 154.692 38.11C154.492 38.4167 154.212 38.6567 153.852 38.83C153.492 39.0033 153.069 39.09 152.582 39.09H150.952ZM149.752 42V34.94H151.322V42H149.752ZM153.592 42L151.392 38.96L152.832 38.57L155.452 42H153.592ZM159.883 42.11C159.303 42.11 158.803 42.0167 158.383 41.83C157.97 41.6367 157.59 41.3467 157.243 40.96L158.263 39.95C158.49 40.21 158.74 40.4133 159.013 40.56C159.293 40.7 159.617 40.77 159.983 40.77C160.317 40.77 160.573 40.71 160.753 40.59C160.94 40.47 161.033 40.3033 161.033 40.09C161.033 39.8967 160.973 39.74 160.853 39.62C160.733 39.5 160.573 39.3967 160.373 39.31C160.18 39.2233 159.963 39.14 159.723 39.06C159.49 38.98 159.257 38.89 159.023 38.79C158.79 38.6833 158.573 38.5533 158.373 38.4C158.18 38.24 158.023 38.0433 157.903 37.81C157.783 37.57 157.723 37.27 157.723 36.91C157.723 36.4767 157.827 36.1033 158.033 35.79C158.247 35.4767 158.54 35.24 158.913 35.08C159.287 34.9133 159.717 34.83 160.203 34.83C160.697 34.83 161.147 34.9167 161.553 35.09C161.967 35.2633 162.307 35.5 162.573 35.8L161.553 36.81C161.34 36.59 161.123 36.4267 160.903 36.32C160.69 36.2133 160.447 36.16 160.173 36.16C159.9 36.16 159.683 36.2133 159.523 36.32C159.363 36.42 159.283 36.5667 159.283 36.76C159.283 36.94 159.343 37.0867 159.463 37.2C159.583 37.3067 159.74 37.4 159.933 37.48C160.133 37.56 160.35 37.64 160.583 37.72C160.823 37.8 161.06 37.8933 161.293 38C161.527 38.1067 161.74 38.2433 161.933 38.41C162.133 38.57 162.293 38.7767 162.413 39.03C162.533 39.2767 162.593 39.5833 162.593 39.95C162.593 40.6233 162.353 41.1533 161.873 41.54C161.393 41.92 160.73 42.11 159.883 42.11ZM166.86 42V35.04H168.43V42H166.86ZM164.65 36.31V34.94H170.64V36.31H164.65ZM178.438 42V35.04H180.008V42H178.438ZM176.228 36.31V34.94H182.218V36.31H176.228ZM184.895 42V34.94H186.465V42H184.895ZM189.265 42V34.94H190.845V42H189.265ZM185.835 39.05V37.69H189.785V39.05H185.835ZM195.2 39.09V37.93H196.69C197.003 37.93 197.243 37.85 197.41 37.69C197.583 37.53 197.67 37.3133 197.67 37.04C197.67 36.7867 197.586 36.5767 197.42 36.41C197.253 36.2433 197.013 36.16 196.7 36.16H195.2V34.94H196.88C197.346 34.94 197.756 35.03 198.11 35.21C198.463 35.3833 198.74 35.6267 198.94 35.94C199.14 36.2533 199.24 36.6133 199.24 37.02C199.24 37.4333 199.14 37.7967 198.94 38.11C198.74 38.4167 198.46 38.6567 198.1 38.83C197.74 39.0033 197.316 39.09 196.83 39.09H195.2ZM194 42V34.94H195.57V42H194ZM197.84 42L195.64 38.96L197.08 38.57L199.7 42H197.84ZM202.186 42V34.94H203.756V42H202.186ZM203.386 42V40.64H207.256V42H203.386ZM203.386 39.05V37.74H206.906V39.05H203.386ZM203.386 36.29V34.94H207.206V36.29H203.386ZM210.139 42V34.94H211.709V42H210.139ZM211.339 42V40.64H215.209V42H211.339ZM211.339 39.05V37.74H214.859V39.05H211.339ZM211.339 36.29V34.94H215.159V36.29H211.339ZM33.68 52V44.94H34.8L37.58 49.27H37.01L39.78 44.94H40.91V52H39.34V47.59L39.62 47.66L37.81 50.48H36.77L34.97 47.66L35.24 47.59V52H33.68ZM47.434 52.12C46.9007 52.12 46.4073 52.0267 45.954 51.84C45.5073 51.6533 45.114 51.3933 44.774 51.06C44.434 50.7267 44.1707 50.34 43.984 49.9C43.7973 49.4533 43.704 48.9733 43.704 48.46C43.704 47.94 43.7973 47.46 43.984 47.02C44.1707 46.58 44.4307 46.1967 44.764 45.87C45.0973 45.5367 45.4873 45.28 45.934 45.1C46.3873 44.9133 46.8807 44.82 47.414 44.82C47.9407 44.82 48.4273 44.9133 48.874 45.1C49.3273 45.28 49.7207 45.5367 50.054 45.87C50.394 46.1967 50.6573 46.5833 50.844 47.03C51.0307 47.47 51.124 47.95 51.124 48.47C51.124 48.9833 51.0307 49.4633 50.844 49.91C50.6573 50.35 50.3973 50.7367 50.064 51.07C49.7307 51.3967 49.3373 51.6533 48.884 51.84C48.4373 52.0267 47.954 52.12 47.434 52.12ZM47.414 50.69C47.834 50.69 48.2007 50.5967 48.514 50.41C48.834 50.2233 49.0807 49.9633 49.254 49.63C49.4273 49.29 49.514 48.9 49.514 48.46C49.514 48.1267 49.464 47.8267 49.364 47.56C49.264 47.2867 49.1207 47.0533 48.934 46.86C48.7473 46.66 48.524 46.51 48.264 46.41C48.0107 46.3033 47.7273 46.25 47.414 46.25C46.994 46.25 46.624 46.3433 46.304 46.53C45.9907 46.71 45.7473 46.9667 45.574 47.3C45.4007 47.6267 45.314 48.0133 45.314 48.46C45.314 48.7933 45.364 49.0967 45.464 49.37C45.564 49.6433 45.704 49.88 45.884 50.08C46.0707 50.2733 46.294 50.4233 46.554 50.53C46.814 50.6367 47.1007 50.69 47.414 50.69ZM53.9206 52V44.94H55.0206L55.4906 46.35V52H53.9206ZM58.7906 52L54.6306 46.67L55.0206 44.94L59.1806 50.27L58.7906 52ZM58.7906 52L58.3706 50.59V44.94H59.9406V52H58.7906ZM64.8334 52V45.04H66.4034V52H64.8334ZM62.6234 46.31V44.94H68.6134V46.31H62.6234ZM71.2902 52V44.94H72.8602V52H71.2902ZM75.6602 52V44.94H77.2402V52H75.6602ZM72.2302 49.05V47.69H76.1802V49.05H72.2302ZM82.3781 52.11C81.7981 52.11 81.2981 52.0167 80.8781 51.83C80.4648 51.6367 80.0848 51.3467 79.7381 50.96L80.7581 49.95C80.9848 50.21 81.2348 50.4133 81.5081 50.56C81.7881 50.7 82.1115 50.77 82.4781 50.77C82.8115 50.77 83.0681 50.71 83.2481 50.59C83.4348 50.47 83.5281 50.3033 83.5281 50.09C83.5281 49.8967 83.4681 49.74 83.3481 49.62C83.2281 49.5 83.0681 49.3967 82.8681 49.31C82.6748 49.2233 82.4581 49.14 82.2181 49.06C81.9848 48.98 81.7515 48.89 81.5181 48.79C81.2848 48.6833 81.0681 48.5533 80.8681 48.4C80.6748 48.24 80.5181 48.0433 80.3981 47.81C80.2781 47.57 80.2181 47.27 80.2181 46.91C80.2181 46.4767 80.3215 46.1033 80.5281 45.79C80.7415 45.4767 81.0348 45.24 81.4081 45.08C81.7815 44.9133 82.2115 44.83 82.6981 44.83C83.1915 44.83 83.6415 44.9167 84.0481 45.09C84.4615 45.2633 84.8015 45.5 85.0681 45.8L84.0481 46.81C83.8348 46.59 83.6181 46.4267 83.3981 46.32C83.1848 46.2133 82.9415 46.16 82.6681 46.16C82.3948 46.16 82.1781 46.2133 82.0181 46.32C81.8581 46.42 81.7781 46.5667 81.7781 46.76C81.7781 46.94 81.8381 47.0867 81.9581 47.2C82.0781 47.3067 82.2348 47.4 82.4281 47.48C82.6281 47.56 82.8448 47.64 83.0781 47.72C83.3181 47.8 83.5548 47.8933 83.7881 48C84.0215 48.1067 84.2348 48.2433 84.4281 48.41C84.6281 48.57 84.7881 48.7767 84.9081 49.03C85.0281 49.2767 85.0881 49.5833 85.0881 49.95C85.0881 50.6233 84.8481 51.1533 84.3681 51.54C83.8881 51.92 83.2248 52.11 82.3781 52.11Z" fill="#6FBFBF"/>
<path d="M33.864 91.336L44.52 68.968H53.736L42.792 91.336H33.864ZM33.864 96.04V91.336L36.36 88.888H61.512V96.04H33.864ZM49.848 103V82.504H58.248V103H49.848ZM61.8716 98.344L75.2156 84.76C75.8556 84.056 76.3836 83.432 76.7996 82.888C77.2156 82.312 77.5036 81.784 77.6636 81.304C77.8556 80.792 77.9516 80.264 77.9516 79.72C77.9516 78.504 77.5516 77.544 76.7516 76.84C75.9836 76.136 74.9596 75.784 73.6796 75.784C72.4636 75.784 71.3596 76.136 70.3676 76.84C69.3756 77.512 68.3516 78.648 67.2956 80.248L61.6796 75.256C63.0556 73.016 64.8156 71.32 66.9596 70.168C69.1036 68.984 71.5676 68.392 74.3516 68.392C76.8156 68.392 78.9436 68.84 80.7356 69.736C82.5276 70.632 83.9036 71.912 84.8636 73.576C85.8556 75.208 86.3516 77.144 86.3516 79.384C86.3516 80.728 86.1756 81.976 85.8236 83.128C85.4716 84.248 84.9116 85.368 84.1436 86.488C83.3756 87.576 82.3516 88.728 81.0716 89.944L72.2396 98.536L61.8716 98.344ZM61.8716 103V98.344L69.0236 95.848H87.0716V103H61.8716ZM89.6719 108.856L93.2719 102.088L95.6719 101.416C95.4159 101.928 95.1119 102.36 94.7599 102.712C94.4079 103.032 94.0079 103.192 93.5599 103.192C92.5679 103.192 91.6399 102.776 90.7759 101.944C89.9439 101.112 89.5279 100.056 89.5279 98.776C89.5279 97.4 89.9759 96.232 90.8719 95.272C91.7999 94.312 92.9679 93.832 94.3759 93.832C95.6559 93.832 96.7759 94.312 97.7359 95.272C98.6959 96.232 99.1759 97.4 99.1759 98.776C99.1759 99.32 99.0639 99.976 98.8399 100.744C98.6479 101.48 98.2319 102.424 97.5919 103.576L93.5599 110.968L89.6719 108.856ZM115.232 103.528C112.384 103.528 109.84 102.792 107.6 101.32C105.36 99.816 103.584 97.736 102.272 95.08C100.992 92.424 100.352 89.368 100.352 85.912C100.352 82.488 100.992 79.464 102.272 76.84C103.552 74.184 105.296 72.12 107.504 70.648C109.744 69.144 112.272 68.392 115.088 68.392C117.968 68.392 120.528 69.144 122.768 70.648C125.008 72.12 126.768 74.184 128.048 76.84C129.328 79.464 129.968 82.52 129.968 86.008C129.968 89.464 129.328 92.52 128.048 95.176C126.768 97.8 125.008 99.848 122.768 101.32C120.56 102.792 118.048 103.528 115.232 103.528ZM115.136 96.136C116.448 96.136 117.568 95.752 118.496 94.984C119.424 94.184 120.128 93.032 120.608 91.528C121.12 90.024 121.376 88.168 121.376 85.96C121.376 83.784 121.12 81.944 120.608 80.44C120.128 78.936 119.424 77.8 118.496 77.032C117.568 76.232 116.432 75.832 115.088 75.832C113.84 75.832 112.752 76.216 111.824 76.984C110.896 77.752 110.176 78.888 109.664 80.392C109.184 81.896 108.944 83.736 108.944 85.912C108.944 88.12 109.184 89.992 109.664 91.528C110.176 93.032 110.896 94.184 111.824 94.984C112.752 95.752 113.856 96.136 115.136 96.136ZM146.235 103.528C143.387 103.528 140.843 102.792 138.603 101.32C136.363 99.816 134.587 97.736 133.275 95.08C131.995 92.424 131.355 89.368 131.355 85.912C131.355 82.488 131.995 79.464 133.275 76.84C134.555 74.184 136.299 72.12 138.507 70.648C140.747 69.144 143.275 68.392 146.091 68.392C148.971 68.392 151.531 69.144 153.771 70.648C156.011 72.12 157.771 74.184 159.051 76.84C160.331 79.464 160.971 82.52 160.971 86.008C160.971 89.464 160.331 92.52 159.051 95.176C157.771 97.8 156.011 99.848 153.771 101.32C151.563 102.792 149.051 103.528 146.235 103.528ZM146.139 96.136C147.451 96.136 148.571 95.752 149.499 94.984C150.427 94.184 151.131 93.032 151.611 91.528C152.123 90.024 152.379 88.168 152.379 85.96C152.379 83.784 152.123 81.944 151.611 80.44C151.131 78.936 150.427 77.8 149.499 77.032C148.571 76.232 147.435 75.832 146.091 75.832C144.843 75.832 143.755 76.216 142.827 76.984C141.899 77.752 141.179 78.888 140.667 80.392C140.187 81.896 139.947 83.736 139.947 85.912C139.947 88.12 140.187 89.992 140.667 91.528C141.179 93.032 141.899 94.184 142.827 94.984C143.755 95.752 144.859 96.136 146.139 96.136ZM177.239 103.528C174.391 103.528 171.847 102.792 169.607 101.32C167.367 99.816 165.591 97.736 164.279 95.08C162.999 92.424 162.359 89.368 162.359 85.912C162.359 82.488 162.999 79.464 164.279 76.84C165.559 74.184 167.303 72.12 169.511 70.648C171.751 69.144 174.279 68.392 177.095 68.392C179.975 68.392 182.535 69.144 184.775 70.648C187.015 72.12 188.775 74.184 190.055 76.84C191.335 79.464 191.975 82.52 191.975 86.008C191.975 89.464 191.335 92.52 190.055 95.176C188.775 97.8 187.015 99.848 184.775 101.32C182.567 102.792 180.055 103.528 177.239 103.528ZM177.143 96.136C178.455 96.136 179.575 95.752 180.503 94.984C181.431 94.184 182.135 93.032 182.615 91.528C183.127 90.024 183.383 88.168 183.383 85.96C183.383 83.784 183.127 81.944 182.615 80.44C182.135 78.936 181.431 77.8 180.503 77.032C179.575 76.232 178.439 75.832 177.095 75.832C175.847 75.832 174.759 76.216 173.831 76.984C172.903 77.752 172.183 78.888 171.671 80.392C171.191 81.896 170.951 83.736 170.951 85.912C170.951 88.12 171.191 89.992 171.671 91.528C172.183 93.032 172.903 94.184 173.831 94.984C174.759 95.752 175.863 96.136 177.143 96.136ZM194.322 90.328V83.56H217.218V90.328H194.322ZM202.338 74.872H209.25V98.92H202.338V74.872Z" fill="#212427"/>
<mask id="path-7-inside-3_1_11491" fill="white">
<path d="M277.656 1H554.328V142H277.656V1Z"/>
</mask>
<path d="M554.328 142V143H555.328V142H554.328ZM554.328 1H553.328V142H554.328H555.328V1H554.328ZM554.328 142V141H277.656V142V143H554.328V142Z" fill="black" fill-opacity="0.07" mask="url(#path-7-inside-3_1_11491)"/>
<path d="M313.706 42.12C313.173 42.12 312.68 42.0267 312.226 41.84C311.78 41.6533 311.386 41.3933 311.046 41.06C310.706 40.7267 310.443 40.34 310.256 39.9C310.07 39.4533 309.976 38.9733 309.976 38.46C309.976 37.94 310.07 37.46 310.256 37.02C310.443 36.58 310.703 36.1967 311.036 35.87C311.37 35.5367 311.76 35.28 312.206 35.1C312.66 34.9133 313.153 34.82 313.686 34.82C314.213 34.82 314.7 34.9133 315.146 35.1C315.6 35.28 315.993 35.5367 316.326 35.87C316.666 36.1967 316.93 36.5833 317.116 37.03C317.303 37.47 317.396 37.95 317.396 38.47C317.396 38.9833 317.303 39.4633 317.116 39.91C316.93 40.35 316.67 40.7367 316.336 41.07C316.003 41.3967 315.61 41.6533 315.156 41.84C314.71 42.0267 314.226 42.12 313.706 42.12ZM313.686 40.69C314.106 40.69 314.473 40.5967 314.786 40.41C315.106 40.2233 315.353 39.9633 315.526 39.63C315.7 39.29 315.786 38.9 315.786 38.46C315.786 38.1267 315.736 37.8267 315.636 37.56C315.536 37.2867 315.393 37.0533 315.206 36.86C315.02 36.66 314.796 36.51 314.536 36.41C314.283 36.3033 314 36.25 313.686 36.25C313.266 36.25 312.896 36.3433 312.576 36.53C312.263 36.71 312.02 36.9667 311.846 37.3C311.673 37.6267 311.586 38.0133 311.586 38.46C311.586 38.7933 311.636 39.0967 311.736 39.37C311.836 39.6433 311.976 39.88 312.156 40.08C312.343 40.2733 312.566 40.4233 312.826 40.53C313.086 40.6367 313.373 40.69 313.686 40.69ZM320.193 42V34.94H321.293L321.763 36.35V42H320.193ZM325.063 42L320.903 36.67L321.293 34.94L325.453 40.27L325.063 42ZM325.063 42L324.643 40.59V34.94H326.213V42H325.063ZM334.654 42V35.04H336.224V42H334.654ZM332.444 36.31V34.94H338.434V36.31H332.444ZM341.11 42V34.94H342.68V42H341.11ZM345.48 42V34.94H347.06V42H345.48ZM342.05 39.05V37.69H346V39.05H342.05ZM350.215 42V34.94H351.785V42H350.215ZM351.415 42V40.64H355.285V42H351.415ZM351.415 39.05V37.74H354.935V39.05H351.415ZM351.415 36.29V34.94H355.235V36.29H351.415ZM363.072 39.43V38.21H364.592C364.785 38.21 364.962 38.17 365.122 38.09C365.282 38.01 365.408 37.8933 365.502 37.74C365.595 37.5867 365.642 37.4 365.642 37.18C365.642 36.9667 365.595 36.7833 365.502 36.63C365.408 36.4767 365.282 36.36 365.122 36.28C364.962 36.2 364.785 36.16 364.592 36.16H363.072V34.94H364.822C365.268 34.94 365.672 35.03 366.032 35.21C366.392 35.39 366.675 35.65 366.882 35.99C367.095 36.3233 367.202 36.72 367.202 37.18C367.202 37.64 367.095 38.04 366.882 38.38C366.675 38.7133 366.392 38.9733 366.032 39.16C365.672 39.34 365.268 39.43 364.822 39.43H363.072ZM361.872 42V34.94H363.442V42H361.872ZM369.883 42V34.94H371.453V42H369.883ZM371.093 42V40.62H374.583V42H371.093ZM376.563 42L379.363 34.94H380.783L383.553 42H381.893L379.773 36.14H380.343L378.193 42H376.563ZM378.153 40.72V39.44H382.003V40.72H378.153ZM387.371 39.37L384.651 34.94H386.471L388.561 38.52H387.391L389.481 34.94H391.261L388.521 39.37H387.371ZM387.181 42V38.65H388.751V42H387.181ZM399.408 42.11C398.828 42.11 398.328 42.0167 397.908 41.83C397.494 41.6367 397.114 41.3467 396.768 40.96L397.788 39.95C398.014 40.21 398.264 40.4133 398.538 40.56C398.818 40.7 399.141 40.77 399.508 40.77C399.841 40.77 400.098 40.71 400.278 40.59C400.464 40.47 400.558 40.3033 400.558 40.09C400.558 39.8967 400.498 39.74 400.378 39.62C400.258 39.5 400.098 39.3967 399.898 39.31C399.704 39.2233 399.488 39.14 399.248 39.06C399.014 38.98 398.781 38.89 398.548 38.79C398.314 38.6833 398.098 38.5533 397.898 38.4C397.704 38.24 397.548 38.0433 397.428 37.81C397.308 37.57 397.248 37.27 397.248 36.91C397.248 36.4767 397.351 36.1033 397.558 35.79C397.771 35.4767 398.064 35.24 398.438 35.08C398.811 34.9133 399.241 34.83 399.728 34.83C400.221 34.83 400.671 34.9167 401.078 35.09C401.491 35.2633 401.831 35.5 402.098 35.8L401.078 36.81C400.864 36.59 400.648 36.4267 400.428 36.32C400.214 36.2133 399.971 36.16 399.698 36.16C399.424 36.16 399.208 36.2133 399.048 36.32C398.888 36.42 398.808 36.5667 398.808 36.76C398.808 36.94 398.868 37.0867 398.988 37.2C399.108 37.3067 399.264 37.4 399.458 37.48C399.658 37.56 399.874 37.64 400.108 37.72C400.348 37.8 400.584 37.8933 400.818 38C401.051 38.1067 401.264 38.2433 401.458 38.41C401.658 38.57 401.818 38.7767 401.938 39.03C402.058 39.2767 402.118 39.5833 402.118 39.95C402.118 40.6233 401.878 41.1533 401.398 41.54C400.918 41.92 400.254 42.11 399.408 42.11ZM406.384 42V35.04H407.954V42H406.384ZM404.174 36.31V34.94H410.164V36.31H404.174ZM415.84 42.12C415.307 42.12 414.813 42.0267 414.36 41.84C413.913 41.6533 413.52 41.3933 413.18 41.06C412.84 40.7267 412.577 40.34 412.39 39.9C412.203 39.4533 412.11 38.9733 412.11 38.46C412.11 37.94 412.203 37.46 412.39 37.02C412.577 36.58 412.837 36.1967 413.17 35.87C413.503 35.5367 413.893 35.28 414.34 35.1C414.793 34.9133 415.287 34.82 415.82 34.82C416.347 34.82 416.833 34.9133 417.28 35.1C417.733 35.28 418.127 35.5367 418.46 35.87C418.8 36.1967 419.063 36.5833 419.25 37.03C419.437 37.47 419.53 37.95 419.53 38.47C419.53 38.9833 419.437 39.4633 419.25 39.91C419.063 40.35 418.803 40.7367 418.47 41.07C418.137 41.3967 417.743 41.6533 417.29 41.84C416.843 42.0267 416.36 42.12 415.84 42.12ZM415.82 40.69C416.24 40.69 416.607 40.5967 416.92 40.41C417.24 40.2233 417.487 39.9633 417.66 39.63C417.833 39.29 417.92 38.9 417.92 38.46C417.92 38.1267 417.87 37.8267 417.77 37.56C417.67 37.2867 417.527 37.0533 417.34 36.86C417.153 36.66 416.93 36.51 416.67 36.41C416.417 36.3033 416.133 36.25 415.82 36.25C415.4 36.25 415.03 36.3433 414.71 36.53C414.397 36.71 414.153 36.9667 413.98 37.3C413.807 37.6267 413.72 38.0133 413.72 38.46C413.72 38.7933 413.77 39.0967 413.87 39.37C413.97 39.6433 414.11 39.88 414.29 40.08C414.477 40.2733 414.7 40.4233 414.96 40.53C415.22 40.6367 415.507 40.69 415.82 40.69ZM423.526 39.09V37.93H425.016C425.33 37.93 425.57 37.85 425.736 37.69C425.91 37.53 425.996 37.3133 425.996 37.04C425.996 36.7867 425.913 36.5767 425.746 36.41C425.58 36.2433 425.34 36.16 425.026 36.16H423.526V34.94H425.206C425.673 34.94 426.083 35.03 426.436 35.21C426.79 35.3833 427.066 35.6267 427.266 35.94C427.466 36.2533 427.566 36.6133 427.566 37.02C427.566 37.4333 427.466 37.7967 427.266 38.11C427.066 38.4167 426.786 38.6567 426.426 38.83C426.066 39.0033 425.643 39.09 425.156 39.09H423.526ZM422.326 42V34.94H423.896V42H422.326ZM426.166 42L423.966 38.96L425.406 38.57L428.026 42H426.166ZM430.513 42V34.94H432.083V42H430.513ZM431.713 42V40.64H435.583V42H431.713ZM431.713 39.05V37.74H435.233V39.05H431.713ZM431.713 36.29V34.94H435.533V36.29H431.713Z" fill="#6FBFBF"/>
<path d="M310.52 81.336L321.176 58.968H330.392L319.448 81.336H310.52ZM310.52 86.04V81.336L313.016 78.888H338.168V86.04H310.52ZM326.504 93V72.504H334.904V93H326.504ZM344.16 93.528C342.752 93.528 341.6 93.064 340.704 92.136C339.808 91.208 339.36 90.056 339.36 88.68C339.36 87.304 339.808 86.152 340.704 85.224C341.6 84.296 342.752 83.832 344.16 83.832C345.536 83.832 346.672 84.296 347.568 85.224C348.464 86.152 348.912 87.304 348.912 88.68C348.912 90.056 348.464 91.208 347.568 92.136C346.672 93.064 345.536 93.528 344.16 93.528ZM352.987 93L364.123 63.672H372.427L361.771 93H352.987ZM348.571 66.12V58.968H372.427V63.672L369.835 66.12H348.571ZM381.752 93.816L386.888 78.552L374.504 70.248H389.672L395.096 53.88L400.616 70.248H415.688L403.304 78.552L408.536 93.816L395.096 84.072L381.752 93.816Z" fill="#212427"/>
<mask id="path-11-inside-4_1_11491" fill="white">
<path d="M554.328 1H830.984V142H554.328V1Z"/>
</mask>
<path d="M830.984 142V141H554.328V142V143H830.984V142Z" fill="black" fill-opacity="0.07" mask="url(#path-11-inside-4_1_11491)"/>
<path d="M590.378 42.12C589.845 42.12 589.351 42.0267 588.898 41.84C588.451 41.6533 588.058 41.3933 587.718 41.06C587.378 40.7267 587.115 40.34 586.928 39.9C586.741 39.4533 586.648 38.9733 586.648 38.46C586.648 37.94 586.741 37.46 586.928 37.02C587.115 36.58 587.375 36.1967 587.708 35.87C588.041 35.5367 588.431 35.28 588.878 35.1C589.331 34.9133 589.825 34.82 590.358 34.82C590.885 34.82 591.371 34.9133 591.818 35.1C592.271 35.28 592.665 35.5367 592.998 35.87C593.338 36.1967 593.601 36.5833 593.788 37.03C593.975 37.47 594.068 37.95 594.068 38.47C594.068 38.9833 593.975 39.4633 593.788 39.91C593.601 40.35 593.341 40.7367 593.008 41.07C592.675 41.3967 592.281 41.6533 591.828 41.84C591.381 42.0267 590.898 42.12 590.378 42.12ZM590.358 40.69C590.778 40.69 591.145 40.5967 591.458 40.41C591.778 40.2233 592.025 39.9633 592.198 39.63C592.371 39.29 592.458 38.9 592.458 38.46C592.458 38.1267 592.408 37.8267 592.308 37.56C592.208 37.2867 592.065 37.0533 591.878 36.86C591.691 36.66 591.468 36.51 591.208 36.41C590.955 36.3033 590.671 36.25 590.358 36.25C589.938 36.25 589.568 36.3433 589.248 36.53C588.935 36.71 588.691 36.9667 588.518 37.3C588.345 37.6267 588.258 38.0133 588.258 38.46C588.258 38.7933 588.308 39.0967 588.408 39.37C588.508 39.6433 588.648 39.88 588.828 40.08C589.015 40.2733 589.238 40.4233 589.498 40.53C589.758 40.6367 590.045 40.69 590.358 40.69ZM596.865 42V34.94H597.965L598.435 36.35V42H596.865ZM601.735 42L597.575 36.67L597.965 34.94L602.125 40.27L601.735 42ZM601.735 42L601.315 40.59V34.94H602.885V42H601.735ZM607.248 42V40.78H608.908C609.214 40.78 609.454 40.69 609.628 40.51C609.801 40.33 609.888 40.11 609.888 39.85C609.888 39.67 609.848 39.51 609.768 39.37C609.688 39.23 609.574 39.12 609.428 39.04C609.288 38.96 609.114 38.92 608.908 38.92H607.248V37.73H608.778C609.038 37.73 609.248 37.6667 609.408 37.54C609.568 37.4067 609.648 37.2067 609.648 36.94C609.648 36.68 609.568 36.4867 609.408 36.36C609.248 36.2267 609.038 36.16 608.778 36.16H607.248V34.94H609.078C609.531 34.94 609.914 35.0233 610.228 35.19C610.548 35.3567 610.791 35.58 610.958 35.86C611.124 36.14 611.208 36.45 611.208 36.79C611.208 37.2233 611.068 37.59 610.788 37.89C610.508 38.19 610.094 38.3967 609.548 38.51L609.588 37.98C610.181 38.0933 610.638 38.3233 610.958 38.67C611.284 39.0167 611.448 39.4433 611.448 39.95C611.448 40.3367 611.351 40.6867 611.158 41C610.971 41.3067 610.698 41.55 610.338 41.73C609.984 41.91 609.558 42 609.058 42H607.248ZM606.048 42V34.94H607.598V42H606.048ZM617.624 42.12C617.09 42.12 616.597 42.0267 616.144 41.84C615.697 41.6533 615.304 41.3933 614.964 41.06C614.624 40.7267 614.36 40.34 614.174 39.9C613.987 39.4533 613.894 38.9733 613.894 38.46C613.894 37.94 613.987 37.46 614.174 37.02C614.36 36.58 614.62 36.1967 614.954 35.87C615.287 35.5367 615.677 35.28 616.124 35.1C616.577 34.9133 617.07 34.82 617.604 34.82C618.13 34.82 618.617 34.9133 619.064 35.1C619.517 35.28 619.91 35.5367 620.244 35.87C620.584 36.1967 620.847 36.5833 621.034 37.03C621.22 37.47 621.314 37.95 621.314 38.47C621.314 38.9833 621.22 39.4633 621.034 39.91C620.847 40.35 620.587 40.7367 620.254 41.07C619.92 41.3967 619.527 41.6533 619.074 41.84C618.627 42.0267 618.144 42.12 617.624 42.12ZM617.604 40.69C618.024 40.69 618.39 40.5967 618.704 40.41C619.024 40.2233 619.27 39.9633 619.444 39.63C619.617 39.29 619.704 38.9 619.704 38.46C619.704 38.1267 619.654 37.8267 619.554 37.56C619.454 37.2867 619.31 37.0533 619.124 36.86C618.937 36.66 618.714 36.51 618.454 36.41C618.2 36.3033 617.917 36.25 617.604 36.25C617.184 36.25 616.814 36.3433 616.494 36.53C616.18 36.71 615.937 36.9667 615.764 37.3C615.59 37.6267 615.504 38.0133 615.504 38.46C615.504 38.7933 615.554 39.0967 615.654 39.37C615.754 39.6433 615.894 39.88 616.074 40.08C616.26 40.2733 616.484 40.4233 616.744 40.53C617.004 40.6367 617.29 40.69 617.604 40.69ZM623.121 42L625.921 34.94H627.341L630.111 42H628.451L626.331 36.14H626.901L624.751 42H623.121ZM624.711 40.72V39.44H628.561V40.72H624.711ZM633.859 39.09V37.93H635.349C635.662 37.93 635.902 37.85 636.069 37.69C636.242 37.53 636.329 37.3133 636.329 37.04C636.329 36.7867 636.245 36.5767 636.079 36.41C635.912 36.2433 635.672 36.16 635.359 36.16H633.859V34.94H635.539C636.005 34.94 636.415 35.03 636.769 35.21C637.122 35.3833 637.399 35.6267 637.599 35.94C637.799 36.2533 637.899 36.6133 637.899 37.02C637.899 37.4333 637.799 37.7967 637.599 38.11C637.399 38.4167 637.119 38.6567 636.759 38.83C636.399 39.0033 635.975 39.09 635.489 39.09H633.859ZM632.659 42V34.94H634.229V42H632.659ZM636.499 42L634.299 38.96L635.739 38.57L638.359 42H636.499ZM641.905 42V40.62H643.655C644.082 40.62 644.455 40.5367 644.775 40.37C645.095 40.1967 645.342 39.9467 645.515 39.62C645.689 39.2933 645.775 38.9067 645.775 38.46C645.775 38.0133 645.685 37.63 645.505 37.31C645.332 36.99 645.085 36.7433 644.765 36.57C644.452 36.3967 644.082 36.31 643.655 36.31H641.855V34.94H643.675C644.209 34.94 644.699 35.0267 645.145 35.2C645.599 35.3667 645.992 35.61 646.325 35.93C646.665 36.2433 646.925 36.6167 647.105 37.05C647.292 37.4767 647.385 37.95 647.385 38.47C647.385 38.9833 647.292 39.4567 647.105 39.89C646.925 40.3233 646.669 40.6967 646.335 41.01C646.002 41.3233 645.609 41.5667 645.155 41.74C644.709 41.9133 644.222 42 643.695 42H641.905ZM640.845 42V34.94H642.415V42H640.845ZM650.184 42V34.94H651.754V42H650.184ZM654.914 42V34.94H656.014L656.484 36.35V42H654.914ZM659.784 42L655.624 36.67L656.014 34.94L660.174 40.27L659.784 42ZM659.784 42L659.364 40.59V34.94H660.934V42H659.784ZM667.427 42.11C666.913 42.11 666.43 42.0167 665.977 41.83C665.53 41.6433 665.14 41.3867 664.807 41.06C664.473 40.7267 664.21 40.34 664.017 39.9C663.83 39.4533 663.737 38.9733 663.737 38.46C663.737 37.9467 663.833 37.47 664.027 37.03C664.22 36.59 664.487 36.2067 664.827 35.88C665.173 35.5467 665.577 35.29 666.037 35.11C666.497 34.9233 666.99 34.83 667.517 34.83C668.123 34.83 668.673 34.94 669.167 35.16C669.667 35.38 670.08 35.6833 670.407 36.07L669.337 37.14C669.11 36.8467 668.843 36.6267 668.537 36.48C668.23 36.3333 667.883 36.26 667.497 36.26C667.083 36.26 666.713 36.3533 666.387 36.54C666.06 36.72 665.803 36.9767 665.617 37.31C665.437 37.6367 665.347 38.02 665.347 38.46C665.347 38.9 665.437 39.2867 665.617 39.62C665.797 39.9533 666.043 40.2133 666.357 40.4C666.67 40.5867 667.03 40.68 667.437 40.68C667.85 40.68 668.2 40.6033 668.487 40.45C668.78 40.29 669.003 40.0633 669.157 39.77C669.317 39.47 669.397 39.1067 669.397 38.68L670.437 39.38L667.287 39.33V38H670.997V38.23C670.997 39.0767 670.843 39.79 670.537 40.37C670.237 40.9433 669.817 41.3767 669.277 41.67C668.743 41.9633 668.127 42.11 667.427 42.11ZM680.803 42.11C680.276 42.11 679.786 42.02 679.333 41.84C678.886 41.6533 678.493 41.3933 678.153 41.06C677.819 40.7267 677.559 40.34 677.373 39.9C677.186 39.4533 677.093 38.9733 677.093 38.46C677.093 37.9467 677.186 37.47 677.373 37.03C677.559 36.5833 677.819 36.1967 678.153 35.87C678.486 35.5433 678.876 35.29 679.323 35.11C679.776 34.9233 680.266 34.83 680.793 34.83C681.353 34.83 681.849 34.92 682.283 35.1C682.723 35.28 683.106 35.5267 683.433 35.84L682.383 36.9C682.196 36.7 681.969 36.5433 681.703 36.43C681.443 36.3167 681.139 36.26 680.793 36.26C680.486 36.26 680.203 36.3133 679.943 36.42C679.689 36.52 679.469 36.6667 679.283 36.86C679.103 37.0533 678.959 37.2867 678.853 37.56C678.753 37.8333 678.703 38.1333 678.703 38.46C678.703 38.7933 678.753 39.0967 678.853 39.37C678.959 39.6433 679.103 39.8767 679.283 40.07C679.469 40.2633 679.689 40.4133 679.943 40.52C680.203 40.6267 680.486 40.68 680.793 40.68C681.153 40.68 681.466 40.6233 681.733 40.51C681.999 40.3967 682.229 40.24 682.423 40.04L683.483 41.1C683.143 41.4133 682.753 41.66 682.313 41.84C681.879 42.02 681.376 42.11 680.803 42.11ZM689.234 42.12C688.701 42.12 688.207 42.0267 687.754 41.84C687.307 41.6533 686.914 41.3933 686.574 41.06C686.234 40.7267 685.971 40.34 685.784 39.9C685.597 39.4533 685.504 38.9733 685.504 38.46C685.504 37.94 685.597 37.46 685.784 37.02C685.971 36.58 686.231 36.1967 686.564 35.87C686.897 35.5367 687.287 35.28 687.734 35.1C688.187 34.9133 688.681 34.82 689.214 34.82C689.741 34.82 690.227 34.9133 690.674 35.1C691.127 35.28 691.521 35.5367 691.854 35.87C692.194 36.1967 692.457 36.5833 692.644 37.03C692.831 37.47 692.924 37.95 692.924 38.47C692.924 38.9833 692.831 39.4633 692.644 39.91C692.457 40.35 692.197 40.7367 691.864 41.07C691.531 41.3967 691.137 41.6533 690.684 41.84C690.237 42.0267 689.754 42.12 689.234 42.12ZM689.214 40.69C689.634 40.69 690.001 40.5967 690.314 40.41C690.634 40.2233 690.881 39.9633 691.054 39.63C691.227 39.29 691.314 38.9 691.314 38.46C691.314 38.1267 691.264 37.8267 691.164 37.56C691.064 37.2867 690.921 37.0533 690.734 36.86C690.547 36.66 690.324 36.51 690.064 36.41C689.811 36.3033 689.527 36.25 689.214 36.25C688.794 36.25 688.424 36.3433 688.104 36.53C687.791 36.71 687.547 36.9667 687.374 37.3C687.201 37.6267 687.114 38.0133 687.114 38.46C687.114 38.7933 687.164 39.0967 687.264 39.37C687.364 39.6433 687.504 39.88 687.684 40.08C687.871 40.2733 688.094 40.4233 688.354 40.53C688.614 40.6367 688.901 40.69 689.214 40.69ZM695.721 42V34.94H696.841L699.621 39.27H699.051L701.821 34.94H702.951V42H701.381V37.59L701.661 37.66L699.851 40.48H698.811L697.011 37.66L697.281 37.59V42H695.721ZM707.305 39.43V38.21H708.825C709.018 38.21 709.195 38.17 709.355 38.09C709.515 38.01 709.641 37.8933 709.735 37.74C709.828 37.5867 709.875 37.4 709.875 37.18C709.875 36.9667 709.828 36.7833 709.735 36.63C709.641 36.4767 709.515 36.36 709.355 36.28C709.195 36.2 709.018 36.16 708.825 36.16H707.305V34.94H709.055C709.501 34.94 709.905 35.03 710.265 35.21C710.625 35.39 710.908 35.65 711.115 35.99C711.328 36.3233 711.435 36.72 711.435 37.18C711.435 37.64 711.328 38.04 711.115 38.38C710.908 38.7133 710.625 38.9733 710.265 39.16C709.905 39.34 709.501 39.43 709.055 39.43H707.305ZM706.105 42V34.94H707.675V42H706.105ZM714.116 42V34.94H715.686V42H714.116ZM715.326 42V40.62H718.816V42H715.326ZM721.521 42V34.94H723.091V42H721.521ZM722.721 42V40.64H726.591V42H722.721ZM722.721 39.05V37.74H726.241V39.05H722.721ZM722.721 36.29V34.94H726.541V36.29H722.721ZM730.989 42V35.04H732.559V42H730.989ZM728.779 36.31V34.94H734.769V36.31H728.779ZM737.445 42V34.94H739.015V42H737.445ZM745.545 42.12C745.012 42.12 744.518 42.0267 744.065 41.84C743.618 41.6533 743.225 41.3933 742.885 41.06C742.545 40.7267 742.282 40.34 742.095 39.9C741.908 39.4533 741.815 38.9733 741.815 38.46C741.815 37.94 741.908 37.46 742.095 37.02C742.282 36.58 742.542 36.1967 742.875 35.87C743.208 35.5367 743.598 35.28 744.045 35.1C744.498 34.9133 744.992 34.82 745.525 34.82C746.052 34.82 746.538 34.9133 746.985 35.1C747.438 35.28 747.832 35.5367 748.165 35.87C748.505 36.1967 748.768 36.5833 748.955 37.03C749.142 37.47 749.235 37.95 749.235 38.47C749.235 38.9833 749.142 39.4633 748.955 39.91C748.768 40.35 748.508 40.7367 748.175 41.07C747.842 41.3967 747.448 41.6533 746.995 41.84C746.548 42.0267 746.065 42.12 745.545 42.12ZM745.525 40.69C745.945 40.69 746.312 40.5967 746.625 40.41C746.945 40.2233 747.192 39.9633 747.365 39.63C747.538 39.29 747.625 38.9 747.625 38.46C747.625 38.1267 747.575 37.8267 747.475 37.56C747.375 37.2867 747.232 37.0533 747.045 36.86C746.858 36.66 746.635 36.51 746.375 36.41C746.122 36.3033 745.838 36.25 745.525 36.25C745.105 36.25 744.735 36.3433 744.415 36.53C744.102 36.71 743.858 36.9667 743.685 37.3C743.512 37.6267 743.425 38.0133 743.425 38.46C743.425 38.7933 743.475 39.0967 743.575 39.37C743.675 39.6433 743.815 39.88 743.995 40.08C744.182 40.2733 744.405 40.4233 744.665 40.53C744.925 40.6367 745.212 40.69 745.525 40.69ZM752.032 42V34.94H753.132L753.602 36.35V42H752.032ZM756.902 42L752.742 36.67L753.132 34.94L757.292 40.27L756.902 42ZM756.902 42L756.482 40.59V34.94H758.052V42H756.902Z" fill="#6FBFBF"/>
<path d="M600.2 93.528C597.768 93.528 595.576 93.016 593.624 91.992C591.704 90.936 590.168 89.512 589.016 87.72C587.896 85.896 587.336 83.864 587.336 81.624C587.336 78.84 588.296 76.04 590.216 73.224L599.96 58.968H609.56L598.472 74.28L595.304 73.992C595.784 73.224 596.264 72.568 596.744 72.024C597.256 71.448 597.88 71 598.616 70.68C599.352 70.36 600.328 70.2 601.544 70.2C603.688 70.2 605.624 70.712 607.352 71.736C609.112 72.728 610.504 74.088 611.528 75.816C612.584 77.512 613.112 79.432 613.112 81.576C613.112 83.848 612.536 85.88 611.384 87.672C610.264 89.464 608.728 90.888 606.776 91.944C604.856 93 602.664 93.528 600.2 93.528ZM600.2 86.28C601.128 86.28 601.944 86.072 602.648 85.656C603.352 85.24 603.896 84.664 604.28 83.928C604.696 83.16 604.904 82.312 604.904 81.384C604.904 80.456 604.696 79.624 604.28 78.888C603.896 78.12 603.352 77.528 602.648 77.112C601.944 76.696 601.128 76.488 600.2 76.488C599.304 76.488 598.504 76.712 597.8 77.16C597.096 77.576 596.536 78.152 596.12 78.888C595.736 79.624 595.544 80.456 595.544 81.384C595.544 82.312 595.736 83.16 596.12 83.928C596.536 84.664 597.096 85.24 597.8 85.656C598.504 86.072 599.304 86.28 600.2 86.28ZM626.605 93.528C624.077 93.528 621.869 93.096 619.981 92.232C618.125 91.368 616.685 90.184 615.661 88.68C614.637 87.176 614.125 85.448 614.125 83.496C614.125 81.864 614.429 80.392 615.037 79.08C615.677 77.768 616.557 76.696 617.677 75.864C618.829 75 620.141 74.424 621.613 74.136L621.469 75.72C620.189 75.464 619.101 74.952 618.205 74.184C617.309 73.384 616.621 72.424 616.141 71.304C615.661 70.152 615.421 68.968 615.421 67.752C615.421 65.928 615.885 64.312 616.813 62.904C617.773 61.496 619.085 60.392 620.749 59.592C622.445 58.792 624.397 58.392 626.605 58.392C628.813 58.392 630.749 58.792 632.413 59.592C634.077 60.392 635.373 61.496 636.301 62.904C637.261 64.312 637.741 65.928 637.741 67.752C637.741 68.968 637.501 70.152 637.021 71.304C636.541 72.424 635.853 73.384 634.957 74.184C634.061 74.952 632.973 75.464 631.693 75.72L631.501 74.136C633.005 74.424 634.317 75 635.437 75.864C636.589 76.696 637.469 77.768 638.077 79.08C638.717 80.392 639.037 81.864 639.037 83.496C639.037 85.448 638.525 87.176 637.501 88.68C636.477 90.184 635.021 91.368 633.133 92.232C631.277 93.096 629.101 93.528 626.605 93.528ZM626.605 86.376C627.437 86.376 628.173 86.2 628.813 85.848C629.485 85.496 629.997 85.016 630.349 84.408C630.733 83.768 630.925 83.048 630.925 82.248C630.925 81.448 630.733 80.744 630.349 80.136C629.997 79.528 629.485 79.048 628.813 78.696C628.173 78.312 627.437 78.12 626.605 78.12C625.741 78.12 624.989 78.312 624.349 78.696C623.709 79.048 623.197 79.528 622.813 80.136C622.429 80.744 622.237 81.448 622.237 82.248C622.237 83.048 622.429 83.768 622.813 84.408C623.197 85.016 623.709 85.496 624.349 85.848C624.989 86.2 625.741 86.376 626.605 86.376ZM626.605 72.024C627.565 72.024 628.349 71.72 628.957 71.112C629.597 70.504 629.917 69.72 629.917 68.76C629.917 67.768 629.597 66.952 628.957 66.312C628.349 65.672 627.565 65.352 626.605 65.352C625.613 65.352 624.797 65.672 624.157 66.312C623.549 66.92 623.245 67.704 623.245 68.664C623.245 69.624 623.549 70.424 624.157 71.064C624.797 71.704 625.613 72.024 626.605 72.024ZM642.269 93L661.949 58.968H669.341L649.661 93H642.269ZM663.869 93.48C662.525 93.48 661.293 93.16 660.173 92.52C659.085 91.88 658.221 91.016 657.581 89.928C656.941 88.808 656.621 87.576 656.621 86.232C656.621 84.888 656.941 83.688 657.581 82.632C658.221 81.544 659.085 80.68 660.173 80.04C661.261 79.4 662.477 79.08 663.821 79.08C665.197 79.08 666.429 79.4 667.517 80.04C668.637 80.68 669.517 81.544 670.157 82.632C670.797 83.688 671.117 84.888 671.117 86.232C671.117 87.576 670.797 88.808 670.157 89.928C669.517 91.016 668.653 91.88 667.565 92.52C666.477 93.16 665.245 93.48 663.869 93.48ZM663.869 88.008C664.381 88.008 664.797 87.848 665.117 87.528C665.469 87.208 665.645 86.792 665.645 86.28C665.645 85.768 665.469 85.352 665.117 85.032C664.797 84.68 664.381 84.504 663.869 84.504C663.357 84.504 662.941 84.68 662.621 85.032C662.301 85.352 662.141 85.768 662.141 86.28C662.141 86.792 662.301 87.208 662.621 87.528C662.973 87.848 663.389 88.008 663.869 88.008ZM647.693 72.888C646.381 72.888 645.165 72.568 644.045 71.928C642.957 71.288 642.093 70.424 641.453 69.336C640.813 68.216 640.493 66.984 640.493 65.64C640.493 64.296 640.813 63.096 641.453 62.04C642.093 60.952 642.957 60.088 644.045 59.448C645.133 58.808 646.349 58.488 647.693 58.488C649.069 58.488 650.301 58.808 651.389 59.448C652.509 60.088 653.389 60.952 654.029 62.04C654.669 63.096 654.989 64.296 654.989 65.64C654.989 66.984 654.653 68.216 653.981 69.336C653.341 70.424 652.477 71.288 651.389 71.928C650.301 72.568 649.069 72.888 647.693 72.888ZM647.693 67.464C648.237 67.464 648.669 67.304 648.989 66.984C649.309 66.632 649.469 66.2 649.469 65.688C649.469 65.176 649.293 64.76 648.941 64.44C648.621 64.088 648.205 63.912 647.693 63.912C647.213 63.912 646.813 64.088 646.493 64.44C646.173 64.76 646.013 65.176 646.013 65.688C646.013 66.2 646.173 66.632 646.493 66.984C646.813 67.304 647.213 67.464 647.693 67.464Z" fill="#212427"/>
<mask id="path-15-inside-5_1_11491" fill="white">
<path d="M1 142H277.656V272H1V142Z"/>
</mask>
<path d="M277.656 142H276.656V272H277.656H278.656V142H277.656Z" fill="black" fill-opacity="0.07" mask="url(#path-15-inside-5_1_11491)"/>
<path d="M33.15 183L35.95 175.94H37.37L40.14 183H38.48L36.36 177.14H36.93L34.78 183H33.15ZM34.74 181.72V180.44H38.59V181.72H34.74ZM45.6562 183.11C45.1295 183.11 44.6395 183.02 44.1862 182.84C43.7395 182.653 43.3462 182.393 43.0062 182.06C42.6728 181.727 42.4128 181.34 42.2262 180.9C42.0395 180.453 41.9462 179.973 41.9462 179.46C41.9462 178.947 42.0395 178.47 42.2262 178.03C42.4128 177.583 42.6728 177.197 43.0062 176.87C43.3395 176.543 43.7295 176.29 44.1762 176.11C44.6295 175.923 45.1195 175.83 45.6462 175.83C46.2062 175.83 46.7028 175.92 47.1362 176.1C47.5762 176.28 47.9595 176.527 48.2862 176.84L47.2362 177.9C47.0495 177.7 46.8228 177.543 46.5562 177.43C46.2962 177.317 45.9928 177.26 45.6462 177.26C45.3395 177.26 45.0562 177.313 44.7962 177.42C44.5428 177.52 44.3228 177.667 44.1362 177.86C43.9562 178.053 43.8128 178.287 43.7062 178.56C43.6062 178.833 43.5562 179.133 43.5562 179.46C43.5562 179.793 43.6062 180.097 43.7062 180.37C43.8128 180.643 43.9562 180.877 44.1362 181.07C44.3228 181.263 44.5428 181.413 44.7962 181.52C45.0562 181.627 45.3395 181.68 45.6462 181.68C46.0062 181.68 46.3195 181.623 46.5862 181.51C46.8528 181.397 47.0828 181.24 47.2762 181.04L48.3362 182.1C47.9962 182.413 47.6062 182.66 47.1662 182.84C46.7328 183.02 46.2295 183.11 45.6562 183.11ZM52.6135 183V176.04H54.1835V183H52.6135ZM50.4035 177.31V175.94H56.3935V177.31H50.4035ZM59.0702 183V175.94H60.6402V183H59.0702ZM65.9999 183L63.2799 175.94H64.9599L67.0299 181.65H66.3399L68.4399 175.94H70.0999L67.3499 183H65.9999ZM71.3004 183L74.1004 175.94H75.5204L78.2904 183H76.6304L74.5104 177.14H75.0804L72.9304 183H71.3004ZM72.8904 181.72V180.44H76.7404V181.72H72.8904ZM81.7764 183V176.04H83.3464V183H81.7764ZM79.5664 177.31V175.94H85.5564V177.31H79.5664ZM88.2331 183V175.94H89.8031V183H88.2331ZM96.3328 183.12C95.7995 183.12 95.3061 183.027 94.8528 182.84C94.4061 182.653 94.0128 182.393 93.6728 182.06C93.3328 181.727 93.0695 181.34 92.8828 180.9C92.6961 180.453 92.6028 179.973 92.6028 179.46C92.6028 178.94 92.6961 178.46 92.8828 178.02C93.0695 177.58 93.3295 177.197 93.6628 176.87C93.9961 176.537 94.3861 176.28 94.8328 176.1C95.2861 175.913 95.7795 175.82 96.3128 175.82C96.8395 175.82 97.3261 175.913 97.7728 176.1C98.2261 176.28 98.6195 176.537 98.9528 176.87C99.2928 177.197 99.5561 177.583 99.7428 178.03C99.9295 178.47 100.023 178.95 100.023 179.47C100.023 179.983 99.9295 180.463 99.7428 180.91C99.5561 181.35 99.2961 181.737 98.9628 182.07C98.6295 182.397 98.2361 182.653 97.7828 182.84C97.3361 183.027 96.8528 183.12 96.3328 183.12ZM96.3128 181.69C96.7328 181.69 97.0995 181.597 97.4128 181.41C97.7328 181.223 97.9795 180.963 98.1528 180.63C98.3261 180.29 98.4128 179.9 98.4128 179.46C98.4128 179.127 98.3628 178.827 98.2628 178.56C98.1628 178.287 98.0195 178.053 97.8328 177.86C97.6461 177.66 97.4228 177.51 97.1628 177.41C96.9095 177.303 96.6261 177.25 96.3128 177.25C95.8928 177.25 95.5228 177.343 95.2028 177.53C94.8895 177.71 94.6461 177.967 94.4728 178.3C94.2995 178.627 94.2128 179.013 94.2128 179.46C94.2128 179.793 94.2628 180.097 94.3628 180.37C94.4628 180.643 94.6028 180.88 94.7828 181.08C94.9695 181.273 95.1928 181.423 95.4528 181.53C95.7128 181.637 95.9995 181.69 96.3128 181.69ZM102.819 183V175.94H103.919L104.389 177.35V183H102.819ZM107.689 183L103.529 177.67L103.919 175.94L108.079 181.27L107.689 183ZM107.689 183L107.269 181.59V175.94H108.839V183H107.689ZM116.907 180.09V178.93H118.397C118.71 178.93 118.95 178.85 119.117 178.69C119.29 178.53 119.377 178.313 119.377 178.04C119.377 177.787 119.293 177.577 119.127 177.41C118.96 177.243 118.72 177.16 118.407 177.16H116.907V175.94H118.587C119.053 175.94 119.463 176.03 119.817 176.21C120.17 176.383 120.447 176.627 120.647 176.94C120.847 177.253 120.947 177.613 120.947 178.02C120.947 178.433 120.847 178.797 120.647 179.11C120.447 179.417 120.167 179.657 119.807 179.83C119.447 180.003 119.023 180.09 118.537 180.09H116.907ZM115.707 183V175.94H117.277V183H115.707ZM119.547 183L117.347 179.96L118.787 179.57L121.407 183H119.547ZM123.139 183L125.939 175.94H127.359L130.129 183H128.469L126.349 177.14H126.919L124.769 183H123.139ZM124.729 181.72V180.44H128.579V181.72H124.729ZM133.615 183V176.04H135.185V183H133.615ZM131.405 177.31V175.94H137.395V177.31H131.405ZM140.071 183V175.94H141.641V183H140.071ZM141.271 183V181.64H145.141V183H141.271ZM141.271 180.05V178.74H144.791V180.05H141.271ZM141.271 177.29V175.94H145.091V177.29H141.271Z" fill="#6FBFBF"/>
<path d="M46.68 234.528C44.152 234.528 41.944 234.096 40.056 233.232C38.2 232.368 36.76 231.184 35.736 229.68C34.712 228.176 34.2 226.448 34.2 224.496C34.2 222.864 34.504 221.392 35.112 220.08C35.752 218.768 36.632 217.696 37.752 216.864C38.904 216 40.216 215.424 41.688 215.136L41.544 216.72C40.264 216.464 39.176 215.952 38.28 215.184C37.384 214.384 36.696 213.424 36.216 212.304C35.736 211.152 35.496 209.968 35.496 208.752C35.496 206.928 35.96 205.312 36.888 203.904C37.848 202.496 39.16 201.392 40.824 200.592C42.52 199.792 44.472 199.392 46.68 199.392C48.888 199.392 50.824 199.792 52.488 200.592C54.152 201.392 55.448 202.496 56.376 203.904C57.336 205.312 57.816 206.928 57.816 208.752C57.816 209.968 57.576 211.152 57.096 212.304C56.616 213.424 55.928 214.384 55.032 215.184C54.136 215.952 53.048 216.464 51.768 216.72L51.576 215.136C53.08 215.424 54.392 216 55.512 216.864C56.664 217.696 57.544 218.768 58.152 220.08C58.792 221.392 59.112 222.864 59.112 224.496C59.112 226.448 58.6 228.176 57.576 229.68C56.552 231.184 55.096 232.368 53.208 233.232C51.352 234.096 49.176 234.528 46.68 234.528ZM46.68 227.376C47.512 227.376 48.248 227.2 48.888 226.848C49.56 226.496 50.072 226.016 50.424 225.408C50.808 224.768 51 224.048 51 223.248C51 222.448 50.808 221.744 50.424 221.136C50.072 220.528 49.56 220.048 48.888 219.696C48.248 219.312 47.512 219.12 46.68 219.12C45.816 219.12 45.064 219.312 44.424 219.696C43.784 220.048 43.272 220.528 42.888 221.136C42.504 221.744 42.312 222.448 42.312 223.248C42.312 224.048 42.504 224.768 42.888 225.408C43.272 226.016 43.784 226.496 44.424 226.848C45.064 227.2 45.816 227.376 46.68 227.376ZM46.68 213.024C47.64 213.024 48.424 212.72 49.032 212.112C49.672 211.504 49.992 210.72 49.992 209.76C49.992 208.768 49.672 207.952 49.032 207.312C48.424 206.672 47.64 206.352 46.68 206.352C45.688 206.352 44.872 206.672 44.232 207.312C43.624 207.92 43.32 208.704 43.32 209.664C43.32 210.624 43.624 211.424 44.232 212.064C44.872 212.704 45.688 213.024 46.68 213.024ZM63.5944 234L74.6824 218.688L77.8504 218.928C77.3704 219.728 76.8744 220.416 76.3624 220.992C75.8824 221.536 75.2744 221.968 74.5384 222.288C73.8024 222.608 72.8264 222.768 71.6104 222.768C69.4664 222.768 67.5144 222.272 65.7544 221.28C64.0264 220.256 62.6344 218.88 61.5784 217.152C60.5224 215.424 59.9944 213.488 59.9944 211.344C59.9944 209.104 60.5704 207.088 61.7224 205.296C62.8744 203.472 64.4264 202.032 66.3784 200.976C68.3304 199.92 70.5064 199.392 72.9064 199.392C75.3704 199.392 77.5624 199.92 79.4824 200.976C81.4344 202.032 82.9704 203.456 84.0904 205.248C85.2424 207.04 85.8184 209.056 85.8184 211.296C85.8184 214.08 84.8584 216.896 82.9384 219.744L73.1944 234H63.5944ZM72.9064 216.432C73.8344 216.432 74.6504 216.224 75.3544 215.808C76.0584 215.392 76.6024 214.816 76.9864 214.08C77.4024 213.344 77.6104 212.512 77.6104 211.584C77.6104 210.624 77.4024 209.776 76.9864 209.04C76.6024 208.304 76.0584 207.728 75.3544 207.312C74.6504 206.896 73.8344 206.688 72.9064 206.688C72.0104 206.688 71.2104 206.896 70.5064 207.312C69.8024 207.728 69.2424 208.304 68.8264 209.04C68.4424 209.776 68.2504 210.624 68.2504 211.584C68.2504 212.512 68.4424 213.344 68.8264 214.08C69.2424 214.816 69.8024 215.392 70.5064 215.808C71.2104 216.224 72.0104 216.432 72.9064 216.432ZM88.8472 234L108.527 199.968H115.919L96.2392 234H88.8472ZM110.447 234.48C109.103 234.48 107.871 234.16 106.751 233.52C105.663 232.88 104.799 232.016 104.159 230.928C103.519 229.808 103.199 228.576 103.199 227.232C103.199 225.888 103.519 224.688 104.159 223.632C104.799 222.544 105.663 221.68 106.751 221.04C107.839 220.4 109.055 220.08 110.399 220.08C111.775 220.08 113.007 220.4 114.095 221.04C115.215 221.68 116.095 222.544 116.735 223.632C117.375 224.688 117.695 225.888 117.695 227.232C117.695 228.576 117.375 229.808 116.735 230.928C116.095 232.016 115.231 232.88 114.143 233.52C113.055 234.16 111.823 234.48 110.447 234.48ZM110.447 229.008C110.959 229.008 111.375 228.848 111.695 228.528C112.047 228.208 112.223 227.792 112.223 227.28C112.223 226.768 112.047 226.352 111.695 226.032C111.375 225.68 110.959 225.504 110.447 225.504C109.935 225.504 109.519 225.68 109.199 226.032C108.879 226.352 108.719 226.768 108.719 227.28C108.719 227.792 108.879 228.208 109.199 228.528C109.551 228.848 109.967 229.008 110.447 229.008ZM94.2712 213.888C92.9592 213.888 91.7432 213.568 90.6232 212.928C89.5352 212.288 88.6712 211.424 88.0312 210.336C87.3912 209.216 87.0712 207.984 87.0712 206.64C87.0712 205.296 87.3912 204.096 88.0312 203.04C88.6712 201.952 89.5352 201.088 90.6232 200.448C91.7112 199.808 92.9272 199.488 94.2712 199.488C95.6472 199.488 96.8792 199.808 97.9672 200.448C99.0872 201.088 99.9672 201.952 100.607 203.04C101.247 204.096 101.567 205.296 101.567 206.64C101.567 207.984 101.231 209.216 100.559 210.336C99.9192 211.424 99.0552 212.288 97.9672 212.928C96.8792 213.568 95.6472 213.888 94.2712 213.888ZM94.2712 208.464C94.8152 208.464 95.2472 208.304 95.5672 207.984C95.8872 207.632 96.0472 207.2 96.0472 206.688C96.0472 206.176 95.8712 205.76 95.5192 205.44C95.1992 205.088 94.7832 204.912 94.2712 204.912C93.7912 204.912 93.3912 205.088 93.0712 205.44C92.7512 205.76 92.5912 206.176 92.5912 206.688C92.5912 207.2 92.7512 207.632 93.0712 207.984C93.3912 208.304 93.7912 208.464 94.2712 208.464Z" fill="#212427"/>
<mask id="path-19-inside-6_1_11491" fill="white">
<path d="M277.656 142H554.328V272H277.656V142Z"/>
</mask>
<path d="M554.328 142H553.328V272H554.328H555.328V142H554.328Z" fill="black" fill-opacity="0.07" mask="url(#path-19-inside-6_1_11491)"/>
<path d="M311.536 180.09V178.93H313.026C313.34 178.93 313.58 178.85 313.746 178.69C313.92 178.53 314.006 178.313 314.006 178.04C314.006 177.787 313.923 177.577 313.756 177.41C313.59 177.243 313.35 177.16 313.036 177.16H311.536V175.94H313.216C313.683 175.94 314.093 176.03 314.446 176.21C314.8 176.383 315.076 176.627 315.276 176.94C315.476 177.253 315.576 177.613 315.576 178.02C315.576 178.433 315.476 178.797 315.276 179.11C315.076 179.417 314.796 179.657 314.436 179.83C314.076 180.003 313.653 180.09 313.166 180.09H311.536ZM310.336 183V175.94H311.906V183H310.336ZM314.176 183L311.976 179.96L313.416 179.57L316.036 183H314.176ZM318.523 183V175.94H320.093V183H318.523ZM319.723 183V181.64H323.593V183H319.723ZM319.723 180.05V178.74H323.243V180.05H319.723ZM319.723 177.29V175.94H323.543V177.29H319.723ZM327.99 183V176.04H329.56V183H327.99ZM325.78 177.31V175.94H331.77V177.31H325.78ZM337.248 183.11C336.668 183.11 336.155 182.987 335.708 182.74C335.268 182.493 334.921 182.153 334.668 181.72C334.421 181.28 334.298 180.78 334.298 180.22V175.94H335.878V180.31C335.878 180.59 335.938 180.833 336.058 181.04C336.178 181.247 336.341 181.407 336.548 181.52C336.761 181.627 336.995 181.68 337.248 181.68C337.515 181.68 337.748 181.627 337.948 181.52C338.148 181.407 338.305 181.25 338.418 181.05C338.538 180.843 338.598 180.6 338.598 180.32V175.94H340.178V180.23C340.178 180.79 340.055 181.287 339.808 181.72C339.561 182.153 339.218 182.493 338.778 182.74C338.338 182.987 337.828 183.11 337.248 183.11ZM344.43 180.09V178.93H345.92C346.233 178.93 346.473 178.85 346.64 178.69C346.813 178.53 346.9 178.313 346.9 178.04C346.9 177.787 346.816 177.577 346.65 177.41C346.483 177.243 346.243 177.16 345.93 177.16H344.43V175.94H346.11C346.576 175.94 346.986 176.03 347.34 176.21C347.693 176.383 347.97 176.627 348.17 176.94C348.37 177.253 348.47 177.613 348.47 178.02C348.47 178.433 348.37 178.797 348.17 179.11C347.97 179.417 347.69 179.657 347.33 179.83C346.97 180.003 346.546 180.09 346.06 180.09H344.43ZM343.23 183V175.94H344.8V183H343.23ZM347.07 183L344.87 179.96L346.31 179.57L348.93 183H347.07ZM351.416 183V175.94H352.516L352.986 177.35V183H351.416ZM356.286 183L352.126 177.67L352.516 175.94L356.676 181.27L356.286 183ZM356.286 183L355.866 181.59V175.94H357.436V183H356.286ZM360.599 183V175.94H362.169V183H360.599ZM365.329 183V175.94H366.429L366.899 177.35V183H365.329ZM370.199 183L366.039 177.67L366.429 175.94L370.589 181.27L370.199 183ZM370.199 183L369.779 181.59V175.94H371.349V183H370.199ZM377.842 183.11C377.328 183.11 376.845 183.017 376.392 182.83C375.945 182.643 375.555 182.387 375.222 182.06C374.888 181.727 374.625 181.34 374.432 180.9C374.245 180.453 374.152 179.973 374.152 179.46C374.152 178.947 374.248 178.47 374.442 178.03C374.635 177.59 374.902 177.207 375.242 176.88C375.588 176.547 375.992 176.29 376.452 176.11C376.912 175.923 377.405 175.83 377.932 175.83C378.538 175.83 379.088 175.94 379.582 176.16C380.082 176.38 380.495 176.683 380.822 177.07L379.752 178.14C379.525 177.847 379.258 177.627 378.952 177.48C378.645 177.333 378.298 177.26 377.912 177.26C377.498 177.26 377.128 177.353 376.802 177.54C376.475 177.72 376.218 177.977 376.032 178.31C375.852 178.637 375.762 179.02 375.762 179.46C375.762 179.9 375.852 180.287 376.032 180.62C376.212 180.953 376.458 181.213 376.772 181.4C377.085 181.587 377.445 181.68 377.852 181.68C378.265 181.68 378.615 181.603 378.902 181.45C379.195 181.29 379.418 181.063 379.572 180.77C379.732 180.47 379.812 180.107 379.812 179.68L380.852 180.38L377.702 180.33V179H381.412V179.23C381.412 180.077 381.258 180.79 380.952 181.37C380.652 181.943 380.232 182.377 379.692 182.67C379.158 182.963 378.542 183.11 377.842 183.11ZM389.988 183.11C389.408 183.11 388.908 183.017 388.488 182.83C388.074 182.637 387.694 182.347 387.348 181.96L388.368 180.95C388.594 181.21 388.844 181.413 389.118 181.56C389.398 181.7 389.721 181.77 390.088 181.77C390.421 181.77 390.678 181.71 390.858 181.59C391.044 181.47 391.138 181.303 391.138 181.09C391.138 180.897 391.078 180.74 390.958 180.62C390.838 180.5 390.678 180.397 390.478 180.31C390.284 180.223 390.068 180.14 389.827 180.06C389.594 179.98 389.361 179.89 389.128 179.79C388.894 179.683 388.678 179.553 388.478 179.4C388.284 179.24 388.128 179.043 388.008 178.81C387.888 178.57 387.828 178.27 387.828 177.91C387.828 177.477 387.931 177.103 388.138 176.79C388.351 176.477 388.644 176.24 389.018 176.08C389.391 175.913 389.821 175.83 390.308 175.83C390.801 175.83 391.251 175.917 391.658 176.09C392.071 176.263 392.411 176.5 392.678 176.8L391.658 177.81C391.444 177.59 391.228 177.427 391.008 177.32C390.794 177.213 390.551 177.16 390.278 177.16C390.004 177.16 389.788 177.213 389.628 177.32C389.468 177.42 389.388 177.567 389.388 177.76C389.388 177.94 389.448 178.087 389.568 178.2C389.688 178.307 389.844 178.4 390.038 178.48C390.238 178.56 390.454 178.64 390.688 178.72C390.928 178.8 391.164 178.893 391.398 179C391.631 179.107 391.844 179.243 392.038 179.41C392.238 179.57 392.398 179.777 392.518 180.03C392.638 180.277 392.697 180.583 392.697 180.95C392.697 181.623 392.458 182.153 391.978 182.54C391.498 182.92 390.834 183.11 389.988 183.11ZM398.455 183.11C397.875 183.11 397.361 182.987 396.915 182.74C396.475 182.493 396.128 182.153 395.875 181.72C395.628 181.28 395.505 180.78 395.505 180.22V175.94H397.085V180.31C397.085 180.59 397.145 180.833 397.265 181.04C397.385 181.247 397.548 181.407 397.755 181.52C397.968 181.627 398.201 181.68 398.455 181.68C398.721 181.68 398.955 181.627 399.155 181.52C399.355 181.407 399.511 181.25 399.625 181.05C399.745 180.843 399.805 180.6 399.805 180.32V175.94H401.385V180.23C401.385 180.79 401.261 181.287 401.015 181.72C400.768 182.153 400.425 182.493 399.985 182.74C399.545 182.987 399.035 183.11 398.455 183.11ZM405.636 183V181.78H407.296C407.603 181.78 407.843 181.69 408.016 181.51C408.19 181.33 408.276 181.11 408.276 180.85C408.276 180.67 408.236 180.51 408.156 180.37C408.076 180.23 407.963 180.12 407.816 180.04C407.676 179.96 407.503 179.92 407.296 179.92H405.636V178.73H407.166C407.426 178.73 407.636 178.667 407.796 178.54C407.956 178.407 408.036 178.207 408.036 177.94C408.036 177.68 407.956 177.487 407.796 177.36C407.636 177.227 407.426 177.16 407.166 177.16H405.636V175.94H407.466C407.92 175.94 408.303 176.023 408.616 176.19C408.936 176.357 409.18 176.58 409.346 176.86C409.513 177.14 409.596 177.45 409.596 177.79C409.596 178.223 409.456 178.59 409.176 178.89C408.896 179.19 408.483 179.397 407.936 179.51L407.976 178.98C408.57 179.093 409.026 179.323 409.346 179.67C409.673 180.017 409.836 180.443 409.836 180.95C409.836 181.337 409.74 181.687 409.546 182C409.36 182.307 409.086 182.55 408.726 182.73C408.373 182.91 407.946 183 407.446 183H405.636ZM404.436 183V175.94H405.986V183H404.436ZM414.626 183.11C414.046 183.11 413.546 183.017 413.126 182.83C412.712 182.637 412.332 182.347 411.986 181.96L413.006 180.95C413.232 181.21 413.482 181.413 413.756 181.56C414.036 181.7 414.359 181.77 414.726 181.77C415.059 181.77 415.316 181.71 415.496 181.59C415.682 181.47 415.776 181.303 415.776 181.09C415.776 180.897 415.716 180.74 415.596 180.62C415.476 180.5 415.316 180.397 415.116 180.31C414.922 180.223 414.706 180.14 414.466 180.06C414.232 179.98 413.999 179.89 413.766 179.79C413.532 179.683 413.316 179.553 413.116 179.4C412.922 179.24 412.766 179.043 412.646 178.81C412.526 178.57 412.466 178.27 412.466 177.91C412.466 177.477 412.569 177.103 412.776 176.79C412.989 176.477 413.282 176.24 413.656 176.08C414.029 175.913 414.459 175.83 414.946 175.83C415.439 175.83 415.889 175.917 416.296 176.09C416.709 176.263 417.049 176.5 417.316 176.8L416.296 177.81C416.082 177.59 415.866 177.427 415.646 177.32C415.432 177.213 415.189 177.16 414.916 177.16C414.642 177.16 414.426 177.213 414.266 177.32C414.106 177.42 414.026 177.567 414.026 177.76C414.026 177.94 414.086 178.087 414.206 178.2C414.326 178.307 414.482 178.4 414.676 178.48C414.876 178.56 415.092 178.64 415.326 178.72C415.566 178.8 415.802 178.893 416.036 179C416.269 179.107 416.482 179.243 416.676 179.41C416.876 179.57 417.036 179.777 417.156 180.03C417.276 180.277 417.336 180.583 417.336 180.95C417.336 181.623 417.096 182.153 416.616 182.54C416.136 182.92 415.472 183.11 414.626 183.11ZM423.544 183.11C423.018 183.11 422.528 183.02 422.074 182.84C421.628 182.653 421.234 182.393 420.894 182.06C420.561 181.727 420.301 181.34 420.114 180.9C419.928 180.453 419.834 179.973 419.834 179.46C419.834 178.947 419.928 178.47 420.114 178.03C420.301 177.583 420.561 177.197 420.894 176.87C421.228 176.543 421.618 176.29 422.064 176.11C422.518 175.923 423.008 175.83 423.534 175.83C424.094 175.83 424.591 175.92 425.024 176.1C425.464 176.28 425.848 176.527 426.174 176.84L425.124 177.9C424.938 177.7 424.711 177.543 424.444 177.43C424.184 177.317 423.881 177.26 423.534 177.26C423.228 177.26 422.944 177.313 422.684 177.42C422.431 177.52 422.211 177.667 422.024 177.86C421.844 178.053 421.701 178.287 421.594 178.56C421.494 178.833 421.444 179.133 421.444 179.46C421.444 179.793 421.494 180.097 421.594 180.37C421.701 180.643 421.844 180.877 422.024 181.07C422.211 181.263 422.431 181.413 422.684 181.52C422.944 181.627 423.228 181.68 423.534 181.68C423.894 181.68 424.208 181.623 424.474 181.51C424.741 181.397 424.971 181.24 425.164 181.04L426.224 182.1C425.884 182.413 425.494 182.66 425.054 182.84C424.621 183.02 424.118 183.11 423.544 183.11ZM430.089 180.09V178.93H431.579C431.892 178.93 432.132 178.85 432.299 178.69C432.472 178.53 432.559 178.313 432.559 178.04C432.559 177.787 432.476 177.577 432.309 177.41C432.142 177.243 431.902 177.16 431.589 177.16H430.089V175.94H431.769C432.236 175.94 432.646 176.03 432.999 176.21C433.352 176.383 433.629 176.627 433.829 176.94C434.029 177.253 434.129 177.613 434.129 178.02C434.129 178.433 434.029 178.797 433.829 179.11C433.629 179.417 433.349 179.657 432.989 179.83C432.629 180.003 432.206 180.09 431.719 180.09H430.089ZM428.889 183V175.94H430.459V183H428.889ZM432.729 183L430.529 179.96L431.969 179.57L434.589 183H432.729ZM437.076 183V175.94H438.646V183H437.076ZM443.005 183V181.78H444.665C444.972 181.78 445.212 181.69 445.385 181.51C445.559 181.33 445.645 181.11 445.645 180.85C445.645 180.67 445.605 180.51 445.525 180.37C445.445 180.23 445.332 180.12 445.185 180.04C445.045 179.96 444.872 179.92 444.665 179.92H443.005V178.73H444.535C444.795 178.73 445.005 178.667 445.165 178.54C445.325 178.407 445.405 178.207 445.405 177.94C445.405 177.68 445.325 177.487 445.165 177.36C445.005 177.227 444.795 177.16 444.535 177.16H443.005V175.94H444.835C445.289 175.94 445.672 176.023 445.985 176.19C446.305 176.357 446.549 176.58 446.715 176.86C446.882 177.14 446.965 177.45 446.965 177.79C446.965 178.223 446.825 178.59 446.545 178.89C446.265 179.19 445.852 179.397 445.305 179.51L445.345 178.98C445.939 179.093 446.395 179.323 446.715 179.67C447.042 180.017 447.205 180.443 447.205 180.95C447.205 181.337 447.109 181.687 446.915 182C446.729 182.307 446.455 182.55 446.095 182.73C445.742 182.91 445.315 183 444.815 183H443.005ZM441.805 183V175.94H443.355V183H441.805ZM450.012 183V175.94H451.582V183H450.012ZM451.212 183V181.64H455.082V183H451.212ZM451.212 180.05V178.74H454.732V180.05H451.212ZM451.212 177.29V175.94H455.032V177.29H451.212ZM459.164 180.09V178.93H460.654C460.967 178.93 461.207 178.85 461.374 178.69C461.547 178.53 461.634 178.313 461.634 178.04C461.634 177.787 461.551 177.577 461.384 177.41C461.217 177.243 460.977 177.16 460.664 177.16H459.164V175.94H460.844C461.311 175.94 461.721 176.03 462.074 176.21C462.427 176.383 462.704 176.627 462.904 176.94C463.104 177.253 463.204 177.613 463.204 178.02C463.204 178.433 463.104 178.797 462.904 179.11C462.704 179.417 462.424 179.657 462.064 179.83C461.704 180.003 461.281 180.09 460.794 180.09H459.164ZM457.964 183V175.94H459.534V183H457.964ZM461.804 183L459.604 179.96L461.044 179.57L463.664 183H461.804ZM468.095 183.11C467.515 183.11 467.015 183.017 466.595 182.83C466.182 182.637 465.802 182.347 465.455 181.96L466.475 180.95C466.702 181.21 466.952 181.413 467.225 181.56C467.505 181.7 467.828 181.77 468.195 181.77C468.528 181.77 468.785 181.71 468.965 181.59C469.152 181.47 469.245 181.303 469.245 181.09C469.245 180.897 469.185 180.74 469.065 180.62C468.945 180.5 468.785 180.397 468.585 180.31C468.392 180.223 468.175 180.14 467.935 180.06C467.702 179.98 467.468 179.89 467.235 179.79C467.002 179.683 466.785 179.553 466.585 179.4C466.392 179.24 466.235 179.043 466.115 178.81C465.995 178.57 465.935 178.27 465.935 177.91C465.935 177.477 466.038 177.103 466.245 176.79C466.458 176.477 466.752 176.24 467.125 176.08C467.498 175.913 467.928 175.83 468.415 175.83C468.908 175.83 469.358 175.917 469.765 176.09C470.178 176.263 470.518 176.5 470.785 176.8L469.765 177.81C469.552 177.59 469.335 177.427 469.115 177.32C468.902 177.213 468.658 177.16 468.385 177.16C468.112 177.16 467.895 177.213 467.735 177.32C467.575 177.42 467.495 177.567 467.495 177.76C467.495 177.94 467.555 178.087 467.675 178.2C467.795 178.307 467.952 178.4 468.145 178.48C468.345 178.56 468.562 178.64 468.795 178.72C469.035 178.8 469.272 178.893 469.505 179C469.738 179.107 469.952 179.243 470.145 179.41C470.345 179.57 470.505 179.777 470.625 180.03C470.745 180.277 470.805 180.583 470.805 180.95C470.805 181.623 470.565 182.153 470.085 182.54C469.605 182.92 468.942 183.11 468.095 183.11Z" fill="#6FBFBF"/>
<path d="M321.944 234.528C319.544 234.528 317.336 234.128 315.32 233.328C313.304 232.496 311.592 231.328 310.184 229.824L315.656 224.448C316.232 225.28 317.08 225.968 318.2 226.512C319.352 227.024 320.552 227.28 321.8 227.28C322.856 227.28 323.784 227.104 324.584 226.752C325.416 226.368 326.056 225.84 326.504 225.168C326.984 224.464 327.224 223.632 327.224 222.672C327.224 221.712 326.984 220.896 326.504 220.224C326.024 219.52 325.336 218.992 324.44 218.64C323.576 218.288 322.536 218.112 321.32 218.112C320.68 218.112 320.008 218.16 319.304 218.256C318.632 218.32 318.088 218.432 317.672 218.592L321.416 213.888C322.44 213.632 323.368 213.424 324.2 213.264C325.064 213.072 325.832 212.976 326.504 212.976C328.232 212.976 329.784 213.392 331.16 214.224C332.536 215.024 333.624 216.176 334.424 217.68C335.224 219.152 335.624 220.896 335.624 222.912C335.624 225.216 335.064 227.248 333.944 229.008C332.824 230.736 331.224 232.096 329.144 233.088C327.096 234.048 324.696 234.528 321.944 234.528ZM317.672 218.592V213.888L325.592 204.624H334.904L326.744 213.888L317.672 218.592ZM312.536 207.12V199.968H334.904V204.624L328.424 207.12H312.536ZM348.12 234.528C345.784 234.528 343.544 234.128 341.4 233.328C339.288 232.496 337.544 231.328 336.168 229.824L341.64 224.448C342.216 225.28 343.064 225.968 344.184 226.512C345.336 227.024 346.536 227.28 347.784 227.28C348.904 227.28 349.864 227.088 350.664 226.704C351.496 226.288 352.136 225.728 352.584 225.024C353.064 224.288 353.304 223.424 353.304 222.432C353.304 221.44 353.064 220.576 352.584 219.84C352.136 219.104 351.48 218.528 350.616 218.112C349.752 217.696 348.712 217.488 347.496 217.488C346.408 217.488 345.4 217.648 344.472 217.968C343.576 218.256 342.76 218.672 342.024 219.216L342.84 213.744C343.704 213.232 344.472 212.8 345.144 212.448C345.816 212.096 346.52 211.84 347.256 211.68C348.024 211.52 348.92 211.44 349.944 211.44C352.536 211.44 354.696 211.968 356.424 213.024C358.184 214.048 359.512 215.424 360.408 217.152C361.304 218.848 361.752 220.72 361.752 222.768C361.752 225.072 361.192 227.12 360.072 228.912C358.952 230.672 357.368 232.048 355.32 233.04C353.304 234.032 350.904 234.528 348.12 234.528ZM342.024 219.216L338.664 216.144L340.344 199.968H348.024L346.248 215.616L342.024 219.216ZM341.4 207.12L340.344 199.968H359.88V207.12H341.4ZM365.082 234L384.762 199.968H392.154L372.474 234H365.082ZM386.682 234.48C385.338 234.48 384.106 234.16 382.986 233.52C381.898 232.88 381.034 232.016 380.394 230.928C379.754 229.808 379.434 228.576 379.434 227.232C379.434 225.888 379.754 224.688 380.394 223.632C381.034 222.544 381.898 221.68 382.986 221.04C384.074 220.4 385.29 220.08 386.634 220.08C388.01 220.08 389.242 220.4 390.33 221.04C391.45 221.68 392.33 222.544 392.97 223.632C393.61 224.688 393.93 225.888 393.93 227.232C393.93 228.576 393.61 229.808 392.97 230.928C392.33 232.016 391.466 232.88 390.378 233.52C389.29 234.16 388.058 234.48 386.682 234.48ZM386.682 229.008C387.194 229.008 387.61 228.848 387.93 228.528C388.282 228.208 388.458 227.792 388.458 227.28C388.458 226.768 388.282 226.352 387.93 226.032C387.61 225.68 387.194 225.504 386.682 225.504C386.17 225.504 385.754 225.68 385.434 226.032C385.114 226.352 384.954 226.768 384.954 227.28C384.954 227.792 385.114 228.208 385.434 228.528C385.786 228.848 386.202 229.008 386.682 229.008ZM370.506 213.888C369.194 213.888 367.978 213.568 366.858 212.928C365.77 212.288 364.906 211.424 364.266 210.336C363.626 209.216 363.306 207.984 363.306 206.64C363.306 205.296 363.626 204.096 364.266 203.04C364.906 201.952 365.77 201.088 366.858 200.448C367.946 199.808 369.162 199.488 370.506 199.488C371.882 199.488 373.114 199.808 374.202 200.448C375.322 201.088 376.202 201.952 376.842 203.04C377.482 204.096 377.802 205.296 377.802 206.64C377.802 207.984 377.466 209.216 376.794 210.336C376.154 211.424 375.29 212.288 374.202 212.928C373.114 213.568 371.882 213.888 370.506 213.888ZM370.506 208.464C371.05 208.464 371.482 208.304 371.802 207.984C372.122 207.632 372.282 207.2 372.282 206.688C372.282 206.176 372.106 205.76 371.754 205.44C371.434 205.088 371.018 204.912 370.506 204.912C370.026 204.912 369.626 205.088 369.306 205.44C368.986 205.76 368.826 206.176 368.826 206.688C368.826 207.2 368.986 207.632 369.306 207.984C369.626 208.304 370.026 208.464 370.506 208.464Z" fill="#212427"/>
<path d="M586.478 183L589.278 175.94H590.698L593.468 183H591.808L589.688 177.14H590.258L588.108 183H586.478ZM588.068 181.72V180.44H591.918V181.72H588.068ZM597.395 183L594.675 175.94H596.355L598.425 181.65H597.735L599.835 175.94H601.495L598.745 183H597.395ZM604.124 183V175.94H605.694V183H604.124ZM605.324 183V181.64H609.194V183H605.324ZM605.324 180.05V178.74H608.844V180.05H605.324ZM605.324 177.29V175.94H609.144V177.29H605.324ZM613.276 180.09V178.93H614.766C615.079 178.93 615.319 178.85 615.486 178.69C615.659 178.53 615.746 178.313 615.746 178.04C615.746 177.787 615.663 177.577 615.496 177.41C615.329 177.243 615.089 177.16 614.776 177.16H613.276V175.94H614.956C615.423 175.94 615.833 176.03 616.186 176.21C616.539 176.383 616.816 176.627 617.016 176.94C617.216 177.253 617.316 177.613 617.316 178.02C617.316 178.433 617.216 178.797 617.016 179.11C616.816 179.417 616.536 179.657 616.176 179.83C615.816 180.003 615.393 180.09 614.906 180.09H613.276ZM612.076 183V175.94H613.646V183H612.076ZM615.916 183L613.716 179.96L615.156 179.57L617.776 183H615.916ZM619.508 183L622.308 175.94H623.728L626.498 183H624.838L622.718 177.14H623.288L621.138 183H619.508ZM621.098 181.72V180.44H624.948V181.72H621.098ZM631.994 183.11C631.481 183.11 630.998 183.017 630.544 182.83C630.098 182.643 629.708 182.387 629.374 182.06C629.041 181.727 628.778 181.34 628.584 180.9C628.398 180.453 628.304 179.973 628.304 179.46C628.304 178.947 628.401 178.47 628.594 178.03C628.788 177.59 629.054 177.207 629.394 176.88C629.741 176.547 630.144 176.29 630.604 176.11C631.064 175.923 631.558 175.83 632.084 175.83C632.691 175.83 633.241 175.94 633.734 176.16C634.234 176.38 634.648 176.683 634.974 177.07L633.904 178.14C633.678 177.847 633.411 177.627 633.104 177.48C632.798 177.333 632.451 177.26 632.064 177.26C631.651 177.26 631.281 177.353 630.954 177.54C630.628 177.72 630.371 177.977 630.184 178.31C630.004 178.637 629.914 179.02 629.914 179.46C629.914 179.9 630.004 180.287 630.184 180.62C630.364 180.953 630.611 181.213 630.924 181.4C631.238 181.587 631.598 181.68 632.004 181.68C632.418 181.68 632.768 181.603 633.054 181.45C633.348 181.29 633.571 181.063 633.724 180.77C633.884 180.47 633.964 180.107 633.964 179.68L635.004 180.38L631.854 180.33V179H635.564V179.23C635.564 180.077 635.411 180.79 635.104 181.37C634.804 181.943 634.384 182.377 633.844 182.67C633.311 182.963 632.694 183.11 631.994 183.11ZM638.316 183V175.94H639.886V183H638.316ZM639.516 183V181.64H643.386V183H639.516ZM639.516 180.05V178.74H643.036V180.05H639.516ZM639.516 177.29V175.94H643.336V177.29H639.516ZM652.093 183.11C651.513 183.11 651.013 183.017 650.593 182.83C650.179 182.637 649.799 182.347 649.453 181.96L650.473 180.95C650.699 181.21 650.949 181.413 651.223 181.56C651.503 181.7 651.826 181.77 652.193 181.77C652.526 181.77 652.783 181.71 652.963 181.59C653.149 181.47 653.243 181.303 653.243 181.09C653.243 180.897 653.183 180.74 653.063 180.62C652.943 180.5 652.783 180.397 652.583 180.31C652.389 180.223 652.173 180.14 651.933 180.06C651.699 179.98 651.466 179.89 651.233 179.79C650.999 179.683 650.783 179.553 650.583 179.4C650.389 179.24 650.233 179.043 650.113 178.81C649.993 178.57 649.933 178.27 649.933 177.91C649.933 177.477 650.036 177.103 650.243 176.79C650.456 176.477 650.749 176.24 651.123 176.08C651.496 175.913 651.926 175.83 652.413 175.83C652.906 175.83 653.356 175.917 653.763 176.09C654.176 176.263 654.516 176.5 654.783 176.8L653.763 177.81C653.549 177.59 653.333 177.427 653.113 177.32C652.899 177.213 652.656 177.16 652.383 177.16C652.109 177.16 651.893 177.213 651.733 177.32C651.573 177.42 651.493 177.567 651.493 177.76C651.493 177.94 651.553 178.087 651.673 178.2C651.793 178.307 651.949 178.4 652.143 178.48C652.343 178.56 652.559 178.64 652.793 178.72C653.033 178.8 653.269 178.893 653.503 179C653.736 179.107 653.949 179.243 654.143 179.41C654.343 179.57 654.503 179.777 654.623 180.03C654.743 180.277 654.803 180.583 654.803 180.95C654.803 181.623 654.563 182.153 654.083 182.54C653.603 182.92 652.939 183.11 652.093 183.11ZM657.603 183V175.94H659.173V183H657.603ZM658.803 183V181.64H662.673V183H658.803ZM658.803 180.05V178.74H662.323V180.05H658.803ZM658.803 177.29V175.94H662.623V177.29H658.803ZM667.499 183.11C666.919 183.11 666.419 183.017 665.999 182.83C665.586 182.637 665.206 182.347 664.859 181.96L665.879 180.95C666.106 181.21 666.356 181.413 666.629 181.56C666.909 181.7 667.233 181.77 667.599 181.77C667.933 181.77 668.189 181.71 668.369 181.59C668.556 181.47 668.649 181.303 668.649 181.09C668.649 180.897 668.589 180.74 668.469 180.62C668.349 180.5 668.189 180.397 667.989 180.31C667.796 180.223 667.579 180.14 667.339 180.06C667.106 179.98 666.873 179.89 666.639 179.79C666.406 179.683 666.189 179.553 665.989 179.4C665.796 179.24 665.639 179.043 665.519 178.81C665.399 178.57 665.339 178.27 665.339 177.91C665.339 177.477 665.443 177.103 665.649 176.79C665.863 176.477 666.156 176.24 666.529 176.08C666.903 175.913 667.333 175.83 667.819 175.83C668.313 175.83 668.763 175.917 669.169 176.09C669.583 176.263 669.923 176.5 670.189 176.8L669.169 177.81C668.956 177.59 668.739 177.427 668.519 177.32C668.306 177.213 668.063 177.16 667.789 177.16C667.516 177.16 667.299 177.213 667.139 177.32C666.979 177.42 666.899 177.567 666.899 177.76C666.899 177.94 666.959 178.087 667.079 178.2C667.199 178.307 667.356 178.4 667.549 178.48C667.749 178.56 667.966 178.64 668.199 178.72C668.439 178.8 668.676 178.893 668.909 179C669.143 179.107 669.356 179.243 669.549 179.41C669.749 179.57 669.909 179.777 670.029 180.03C670.149 180.277 670.209 180.583 670.209 180.95C670.209 181.623 669.969 182.153 669.489 182.54C669.009 182.92 668.346 183.11 667.499 183.11ZM674.954 183.11C674.374 183.11 673.874 183.017 673.454 182.83C673.04 182.637 672.66 182.347 672.314 181.96L673.334 180.95C673.56 181.21 673.81 181.413 674.084 181.56C674.364 181.7 674.687 181.77 675.054 181.77C675.387 181.77 675.644 181.71 675.824 181.59C676.01 181.47 676.104 181.303 676.104 181.09C676.104 180.897 676.044 180.74 675.924 180.62C675.804 180.5 675.644 180.397 675.444 180.31C675.25 180.223 675.034 180.14 674.794 180.06C674.56 179.98 674.327 179.89 674.094 179.79C673.86 179.683 673.644 179.553 673.444 179.4C673.25 179.24 673.094 179.043 672.974 178.81C672.854 178.57 672.794 178.27 672.794 177.91C672.794 177.477 672.897 177.103 673.104 176.79C673.317 176.477 673.61 176.24 673.984 176.08C674.357 175.913 674.787 175.83 675.274 175.83C675.767 175.83 676.217 175.917 676.624 176.09C677.037 176.263 677.377 176.5 677.644 176.8L676.624 177.81C676.41 177.59 676.194 177.427 675.974 177.32C675.76 177.213 675.517 177.16 675.244 177.16C674.97 177.16 674.754 177.213 674.594 177.32C674.434 177.42 674.354 177.567 674.354 177.76C674.354 177.94 674.414 178.087 674.534 178.2C674.654 178.307 674.81 178.4 675.004 178.48C675.204 178.56 675.42 178.64 675.654 178.72C675.894 178.8 676.13 178.893 676.364 179C676.597 179.107 676.81 179.243 677.004 179.41C677.204 179.57 677.364 179.777 677.484 180.03C677.604 180.277 677.664 180.583 677.664 180.95C677.664 181.623 677.424 182.153 676.944 182.54C676.464 182.92 675.8 183.11 674.954 183.11ZM680.464 183V175.94H682.034V183H680.464ZM688.563 183.12C688.03 183.12 687.537 183.027 687.083 182.84C686.637 182.653 686.243 182.393 685.903 182.06C685.563 181.727 685.3 181.34 685.113 180.9C684.927 180.453 684.833 179.973 684.833 179.46C684.833 178.94 684.927 178.46 685.113 178.02C685.3 177.58 685.56 177.197 685.893 176.87C686.227 176.537 686.617 176.28 687.063 176.1C687.517 175.913 688.01 175.82 688.543 175.82C689.07 175.82 689.557 175.913 690.003 176.1C690.457 176.28 690.85 176.537 691.183 176.87C691.523 177.197 691.787 177.583 691.973 178.03C692.16 178.47 692.253 178.95 692.253 179.47C692.253 179.983 692.16 180.463 691.973 180.91C691.787 181.35 691.527 181.737 691.193 182.07C690.86 182.397 690.467 182.653 690.013 182.84C689.567 183.027 689.083 183.12 688.563 183.12ZM688.543 181.69C688.963 181.69 689.33 181.597 689.643 181.41C689.963 181.223 690.21 180.963 690.383 180.63C690.557 180.29 690.643 179.9 690.643 179.46C690.643 179.127 690.593 178.827 690.493 178.56C690.393 178.287 690.25 178.053 690.063 177.86C689.877 177.66 689.653 177.51 689.393 177.41C689.14 177.303 688.857 177.25 688.543 177.25C688.123 177.25 687.753 177.343 687.433 177.53C687.12 177.71 686.877 177.967 686.703 178.3C686.53 178.627 686.443 179.013 686.443 179.46C686.443 179.793 686.493 180.097 686.593 180.37C686.693 180.643 686.833 180.88 687.013 181.08C687.2 181.273 687.423 181.423 687.683 181.53C687.943 181.637 688.23 181.69 688.543 181.69ZM695.05 183V175.94H696.15L696.62 177.35V183H695.05ZM699.92 183L695.76 177.67L696.15 175.94L700.31 181.27L699.92 183ZM699.92 183L699.5 181.59V175.94H701.07V183H699.92Z" fill="#6FBFBF"/>
<path d="M600.008 234.528C597.48 234.528 595.272 234.096 593.384 233.232C591.528 232.368 590.088 231.184 589.064 229.68C588.04 228.176 587.528 226.448 587.528 224.496C587.528 222.864 587.832 221.392 588.44 220.08C589.08 218.768 589.96 217.696 591.08 216.864C592.232 216 593.544 215.424 595.016 215.136L594.872 216.72C593.592 216.464 592.504 215.952 591.608 215.184C590.712 214.384 590.024 213.424 589.544 212.304C589.064 211.152 588.824 209.968 588.824 208.752C588.824 206.928 589.288 205.312 590.216 203.904C591.176 202.496 592.488 201.392 594.152 200.592C595.848 199.792 597.8 199.392 600.008 199.392C602.216 199.392 604.152 199.792 605.816 200.592C607.48 201.392 608.776 202.496 609.704 203.904C610.664 205.312 611.144 206.928 611.144 208.752C611.144 209.968 610.904 211.152 610.424 212.304C609.944 213.424 609.256 214.384 608.36 215.184C607.464 215.952 606.376 216.464 605.096 216.72L604.904 215.136C606.408 215.424 607.72 216 608.84 216.864C609.992 217.696 610.872 218.768 611.48 220.08C612.12 221.392 612.44 222.864 612.44 224.496C612.44 226.448 611.928 228.176 610.904 229.68C609.88 231.184 608.424 232.368 606.536 233.232C604.68 234.096 602.504 234.528 600.008 234.528ZM600.008 227.376C600.84 227.376 601.576 227.2 602.216 226.848C602.888 226.496 603.4 226.016 603.752 225.408C604.136 224.768 604.328 224.048 604.328 223.248C604.328 222.448 604.136 221.744 603.752 221.136C603.4 220.528 602.888 220.048 602.216 219.696C601.576 219.312 600.84 219.12 600.008 219.12C599.144 219.12 598.392 219.312 597.752 219.696C597.112 220.048 596.6 220.528 596.216 221.136C595.832 221.744 595.64 222.448 595.64 223.248C595.64 224.048 595.832 224.768 596.216 225.408C596.6 226.016 597.112 226.496 597.752 226.848C598.392 227.2 599.144 227.376 600.008 227.376ZM600.008 213.024C600.968 213.024 601.752 212.72 602.36 212.112C603 211.504 603.32 210.72 603.32 209.76C603.32 208.768 603 207.952 602.36 207.312C601.752 206.672 600.968 206.352 600.008 206.352C599.016 206.352 598.2 206.672 597.56 207.312C596.952 207.92 596.648 208.704 596.648 209.664C596.648 210.624 596.952 211.424 597.56 212.064C598.2 212.704 599.016 213.024 600.008 213.024ZM619.8 234.528C618.392 234.528 617.24 234.064 616.344 233.136C615.448 232.208 615 231.056 615 229.68C615 228.304 615.448 227.152 616.344 226.224C617.24 225.296 618.392 224.832 619.8 224.832C621.176 224.832 622.312 225.296 623.208 226.224C624.104 227.152 624.552 228.304 624.552 229.68C624.552 231.056 624.104 232.208 623.208 233.136C622.312 234.064 621.176 234.528 619.8 234.528ZM638.17 234.528C635.834 234.528 633.594 234.128 631.45 233.328C629.338 232.496 627.594 231.328 626.218 229.824L631.69 224.448C632.266 225.28 633.114 225.968 634.234 226.512C635.386 227.024 636.586 227.28 637.834 227.28C638.954 227.28 639.914 227.088 640.714 226.704C641.546 226.288 642.186 225.728 642.634 225.024C643.114 224.288 643.354 223.424 643.354 222.432C643.354 221.44 643.114 220.576 642.634 219.84C642.186 219.104 641.53 218.528 640.666 218.112C639.802 217.696 638.762 217.488 637.546 217.488C636.458 217.488 635.45 217.648 634.522 217.968C633.626 218.256 632.81 218.672 632.074 219.216L632.89 213.744C633.754 213.232 634.522 212.8 635.194 212.448C635.866 212.096 636.57 211.84 637.306 211.68C638.074 211.52 638.97 211.44 639.994 211.44C642.586 211.44 644.746 211.968 646.474 213.024C648.234 214.048 649.562 215.424 650.458 217.152C651.354 218.848 651.802 220.72 651.802 222.768C651.802 225.072 651.242 227.12 650.122 228.912C649.002 230.672 647.418 232.048 645.37 233.04C643.354 234.032 640.954 234.528 638.17 234.528ZM632.074 219.216L628.714 216.144L630.394 199.968H638.074L636.298 215.616L632.074 219.216ZM631.45 207.12L630.394 199.968H649.93V207.12H631.45ZM662.023 234V210.528H670.375V234H662.023ZM676.759 234V220.416C676.759 219.424 676.455 218.656 675.847 218.112C675.239 217.536 674.487 217.248 673.591 217.248C672.951 217.248 672.391 217.376 671.911 217.632C671.431 217.888 671.047 218.256 670.759 218.736C670.503 219.184 670.375 219.744 670.375 220.416L667.111 219.12C667.111 217.232 667.527 215.616 668.359 214.272C669.191 212.928 670.311 211.888 671.719 211.152C673.127 210.416 674.727 210.048 676.519 210.048C678.119 210.048 679.559 210.432 680.839 211.2C682.151 211.936 683.191 212.976 683.959 214.32C684.727 215.664 685.111 217.248 685.111 219.072V234H676.759ZM691.495 234V220.416C691.495 219.424 691.191 218.656 690.583 218.112C689.975 217.536 689.223 217.248 688.327 217.248C687.719 217.248 687.159 217.376 686.647 217.632C686.167 217.888 685.783 218.256 685.495 218.736C685.239 219.184 685.111 219.744 685.111 220.416L680.215 220.176C680.279 218.064 680.743 216.256 681.607 214.752C682.471 213.248 683.655 212.096 685.159 211.296C686.695 210.464 688.423 210.048 690.343 210.048C692.167 210.048 693.799 210.432 695.239 211.2C696.679 211.968 697.799 213.088 698.599 214.56C699.431 216 699.847 217.728 699.847 219.744V234H691.495ZM702.963 234V210.528H711.363V234H702.963ZM707.139 207.792C705.891 207.792 704.851 207.376 704.019 206.544C703.187 205.68 702.771 204.608 702.771 203.328C702.771 202.08 703.187 201.024 704.019 200.16C704.851 199.296 705.891 198.864 707.139 198.864C708.451 198.864 709.507 199.296 710.307 200.16C711.139 201.024 711.555 202.08 711.555 203.328C711.555 204.608 711.139 205.68 710.307 206.544C709.507 207.376 708.451 207.792 707.139 207.792ZM730.245 234V220.752C730.245 219.664 729.925 218.816 729.285 218.208C728.645 217.568 727.829 217.248 726.837 217.248C726.165 217.248 725.557 217.392 725.013 217.68C724.501 217.968 724.101 218.368 723.813 218.88C723.525 219.392 723.381 220.016 723.381 220.752L720.117 219.216C720.117 217.328 720.533 215.712 721.365 214.368C722.197 212.992 723.333 211.936 724.773 211.2C726.245 210.432 727.909 210.048 729.765 210.048C731.461 210.048 732.965 210.448 734.277 211.248C735.621 212.016 736.677 213.056 737.445 214.368C738.213 215.68 738.597 217.168 738.597 218.832V234H730.245ZM715.029 234V210.528H723.381V234H715.029Z" fill="#212427"/>
</svg>
