<svg width="170" height="170" viewBox="0 0 170 170" fill="none" xmlns="http://www.w3.org/2000/svg">
<path fill-rule="evenodd" clip-rule="evenodd" d="M104.754 59.2099C104.892 58.4377 105.031 57.6656 105.338 56.9397L105.335 56.9405C105.379 56.8341 105.424 56.7279 105.471 56.6229C105.515 56.8962 105.543 57.174 105.549 57.4514C105.564 58.1498 105.426 58.8359 105.289 59.5201C105.237 59.7785 105.186 60.0366 105.142 60.2951C104.869 61.7265 104.565 63.1523 104.25 64.5758C103.071 69.9237 101.84 74.7546 100.317 80.105C100.239 80.3796 100.16 80.6542 100.081 80.9289C99.189 84.0435 98.2962 87.1603 97.2033 90.2115C96.4709 92.2558 95.6896 94.283 94.8445 96.2838C93.4738 99.6069 91.1045 104.94 87.4435 106.086C84.6928 106.966 82.4787 104.874 80.6391 103.123C78.8448 101.459 77.005 99.8306 75.008 98.4126C73.7332 97.5483 72.6793 96.9783 71.4913 96.4037C69.9402 95.7159 68.539 95.5838 67.191 96.1428C66.7701 96.34 66.7317 96.3704 66.4248 96.6132C66.3688 96.6575 66.3039 96.7088 66.2261 96.7695C65.6197 97.2894 65.3516 97.6185 64.8072 98.4138C64.1586 99.3997 63.5328 101.101 63.1492 102.59C62.8591 103.665 62.5332 105.216 62.3329 106.657C62.1711 107.871 62.0143 109.088 61.9963 110.314C61.9863 110.6 61.9912 110.89 61.9963 111.184C62.0115 112.072 62.0274 113.003 61.6332 114.017C61.3687 113.5 61.1876 112.939 61.1021 112.365C61.068 111.925 61.0688 111.483 61.0695 111.041C61.0697 110.948 61.0699 110.855 61.0697 110.761C61.0576 109.419 61.1982 108.083 61.3824 106.755C61.5283 105.71 61.6911 104.664 61.9448 103.639C62.4827 101.301 63.1401 98.8719 64.6943 96.9874C65.2444 96.3477 65.8749 95.7552 66.6305 95.3678C67.6835 94.8613 68.8993 94.7498 70.0424 94.9534C71.608 95.2773 72.7549 95.9491 73.9471 96.6474C74.212 96.8026 74.4792 96.9591 74.7537 97.1134C76.9328 98.5043 78.8738 100.238 80.7819 101.974C83.4938 104.552 85.4181 106.286 88.0848 104.716C89.4241 103.86 90.0101 103.08 90.9235 101.776C92.2853 99.7911 93.152 97.6953 94.1335 95.3217C94.2034 95.1527 94.2738 94.9823 94.3451 94.8105C95.8618 91.0862 97.184 87.2847 98.2808 83.4152C98.4339 82.882 98.5872 82.3489 98.7404 81.8157C100.312 76.3468 101.885 70.8763 103.337 65.3739C103.72 63.9039 104.119 62.2333 104.531 60.3373C104.619 59.9651 104.686 59.5875 104.754 59.2099ZM96.2185 78.1118C96.4202 77.5365 96.7432 76.9941 97.2497 76.6368L97.2483 76.6398C97.357 76.5588 97.474 76.4893 97.5995 76.4378C97.6297 76.7137 97.6603 77.0512 97.6282 77.3636C97.6051 77.8026 97.4424 78.2041 97.2797 78.6057C97.2354 78.7152 97.191 78.8248 97.1495 78.9351C96.5791 80.4729 96.2426 82.0771 95.906 83.6813C95.7163 84.5857 95.5265 85.4901 95.2949 86.3825C95.0021 87.5383 94.6416 88.6754 94.2812 89.8122C94.1678 90.17 94.0544 90.5276 93.9431 90.8859C93.2081 93.2056 92.364 95.4886 91.358 97.7045C90.778 99.0577 90.1715 100.429 89.1494 101.515C88.6141 102.061 87.933 102.474 87.2146 102.729C86.6459 102.896 86.057 102.803 85.499 102.642C84.4109 102.384 83.4585 101.768 82.5727 101.107C81.8679 100.595 81.2632 99.9674 80.6599 99.3413C80.49 99.165 80.3201 98.9887 80.1482 98.8152C79.9931 98.6489 79.833 98.4869 79.6729 98.3249C79.3796 98.028 79.0861 97.7309 78.8226 97.4074C78.4621 96.952 78.2009 96.424 78.003 95.8799C79.1056 96.2921 79.5249 96.7234 80.3068 97.5447C80.4791 97.721 80.6508 97.8979 80.8224 98.0748C81.308 98.5753 81.7936 99.0758 82.2942 99.5618C83.0456 100.279 83.7304 100.759 84.8374 101.339C85.0185 101.413 85.2004 101.481 85.3878 101.538C85.6804 101.62 85.9758 101.695 86.2757 101.751C86.5127 101.761 86.5479 101.769 86.5821 101.767C86.602 101.765 86.6216 101.759 86.6806 101.748C86.992 101.683 87.0052 101.675 87.2103 101.556C87.2745 101.519 87.3575 101.471 87.4744 101.407C87.4973 101.392 87.5194 101.378 87.5407 101.365C88.0512 101.043 88.0975 101.014 88.5748 100.453C88.5806 100.445 88.5863 100.439 88.5915 100.432C88.5929 100.431 88.5944 100.429 88.5957 100.427C88.8805 100.054 89.1418 99.6636 89.3714 99.2537C89.6574 98.7362 89.8934 98.1949 90.1293 97.6537C90.2055 97.4789 90.2817 97.3041 90.3596 97.1302C90.4452 96.9307 90.5384 96.7153 90.6327 96.4975C90.9286 95.814 91.2353 95.1057 91.3496 94.7842C92.3957 92.0362 93.2888 89.2275 94.0878 86.3986C94.3477 85.4066 94.5611 84.4032 94.7745 83.3996C95.042 82.1422 95.3094 80.8847 95.6684 79.6497C95.8249 79.1276 96.0181 78.6182 96.2185 78.1118Z" fill="black"/>
<g clip-path="url(#clip0_1_3487)">
<path d="M62.2784 114.431C63.0196 113.649 63.8684 112.647 64.3581 112.124C64.7816 111.662 65.2006 111.195 65.6188 110.728C65.7678 110.54 65.9734 110.389 66.0768 110.17C66.2788 109.575 65.5196 109.304 65.2595 109.739C65.2557 109.744 65.2527 109.749 65.2489 109.754C65.0147 110.017 64.7775 110.277 64.5442 110.54C63.7838 111.382 62.8072 112.458 61.8466 113.542C61.8333 113.532 61.82 113.522 61.8068 113.513C61.5401 113.31 61.2926 113.082 61.0459 112.855C60.3353 112.213 59.1559 110.934 58.2061 109.979C57.813 109.588 57.6851 109.473 57.4748 109.285C57.3966 109.228 57.3246 109.159 57.2454 109.103C57.1899 109.054 57.1211 109.021 57.0472 109.014C56.8586 108.991 56.6735 109.145 56.6564 109.338C56.6519 109.435 56.6719 109.531 56.7366 109.607C56.735 109.606 56.7329 109.601 56.7294 109.595C56.7528 109.63 56.7789 109.663 56.8031 109.698C56.9317 109.883 57.0767 110.054 57.2235 110.223C57.8301 110.909 58.4625 111.57 59.0949 112.231C59.6213 112.786 60.169 113.319 60.7346 113.832C61.1513 114.172 61.7122 114.836 62.2777 114.431L62.2784 114.431Z" fill="black"/>
</g>
<g clip-path="url(#clip1_1_3487)">
<path d="M105.558 56.0059C104.553 56.3968 103.358 56.9398 102.692 57.2027C102.111 57.4396 101.533 57.6826 100.955 57.9261C100.74 58.0329 100.49 58.0812 100.303 58.2354C99.8658 58.6867 100.436 59.2562 100.858 58.9737C100.863 58.9711 100.868 58.968 100.873 58.9653C101.197 58.8276 101.523 58.6937 101.847 58.5556C102.894 58.119 104.237 57.5639 105.568 56.9945C105.576 57.009 105.584 57.0236 105.592 57.0381C105.746 57.3353 105.873 57.6472 105.999 57.958C106.367 58.8418 106.886 60.5027 107.337 61.7714C107.525 62.2934 107.591 62.4519 107.701 62.7115C107.748 62.7966 107.783 62.89 107.831 62.974C107.86 63.0419 107.908 63.1013 107.972 63.1394C108.133 63.2412 108.366 63.1808 108.464 63.0137C108.51 62.9273 108.532 62.8322 108.506 62.7363C108.507 62.7379 108.507 62.7429 108.508 62.7501C108.501 62.7087 108.492 62.6675 108.485 62.6257C108.448 62.4036 108.39 62.1869 108.33 61.9709C108.074 61.092 107.785 60.2237 107.496 59.3554C107.257 58.629 106.99 57.9131 106.698 57.2073C106.466 56.7226 106.243 55.8819 105.558 56.007L105.558 56.0059Z" fill="black"/>
</g>
<defs>
<clipPath id="clip0_1_3487">
<rect width="5.37678" height="9.47337" fill="white" transform="translate(66.1525 109.573) rotate(95.5607)"/>
</clipPath>
<clipPath id="clip1_1_3487">
<rect width="5.37678" height="9.47337" fill="white" transform="translate(99.9791 58.7427) rotate(-59.1365)"/>
</clipPath>
</defs>
</svg>
